<?xml version="1.0" encoding="UTF-8"?>
<svg width="28px" height="28px" viewBox="0 0 28 28" version="1.1" xmlns="http://www.w3.org/2000/svg" xmlns:xlink="http://www.w3.org/1999/xlink">
    <title>助手</title>
    <g id="切图" stroke="none" stroke-width="1" fill="none" fill-rule="evenodd">
        <g transform="translate(-62, -24)" id="助手">
            <g transform="translate(62, 24)">
                <circle id="Oval" fill="#205CE8" cx="14" cy="14" r="14"></circle>
                <g id="Group" transform="translate(6, 5)" fill="#FFFFFF" fill-rule="nonzero">
                    <path d="M16,12.9439172 C15.9992669,15.3747986 14.4309216,17.4779398 12.2296,18 L11.7192,16.3485764 C12.6656234,16.1804605 13.4923443,15.5636642 13.972,14.6678171 L12,14.6678171 C11.1163444,14.6678171 10.4,13.8952282 10.4,12.9421915 L10.4,9.49094047 C10.4,8.5379038 11.1163444,7.76531493 12,7.76531493 L14.3504,7.76531493 C13.9464759,4.31438081 11.2251006,1.72655422 8,1.72655422 C4.77489939,1.72655422 2.05352414,4.31438081 1.6496,7.76531493 L4,7.76531493 C4.8836556,7.76531493 5.6,8.5379038 5.6,9.49094047 L5.6,12.9421915 C5.6,13.8952282 4.8836556,14.6678171 4,14.6678171 L1.6,14.6678171 C0.7163444,14.6678171 0,13.8952282 0,12.9421915 L0,8.6281277 C0,3.86281277 3.5816,0 8,0 C12.4184,0 16,3.86281277 16,8.6281277 L16,12.9421915 L16,12.9439172 Z" id="Shape"></path>
                </g>
            </g>
        </g>
    </g>
</svg>