<?xml version="1.0" encoding="UTF-8"?>
<svg width="12px" height="14px" viewBox="0 0 12 14" version="1.1" xmlns="http://www.w3.org/2000/svg" xmlns:xlink="http://www.w3.org/1999/xlink">
    <title>助手icon</title>
    <g id="切图" stroke="none" stroke-width="1" fill="none" fill-rule="evenodd" fill-opacity="0.85">
        <g transform="translate(-320, -25)" fill="#000000" fill-rule="nonzero" id="助手icon">
            <g transform="translate(320, 25)" id="Group">
                <path d="M12,10.0674911 C11.9994502,11.9581767 10.8231912,13.5939532 9.1722,14 L8.7894,12.7155594 C9.49921758,12.5848026 10.1192582,12.1050722 10.479,11.4083022 L9,11.4083022 C8.3372583,11.4083022 7.8,10.8073997 7.8,10.066149 L7.8,7.38184258 C7.8,6.64059184 8.3372583,6.03968939 9,6.03968939 L10.7628,6.03968939 C10.4598569,3.35562952 8.41882545,1.34287551 6,1.34287551 C3.58117455,1.34287551 1.5401431,3.35562952 1.2372,6.03968939 L3,6.03968939 C3.6627417,6.03968939 4.2,6.64059184 4.2,7.38184258 L4.2,10.066149 C4.2,10.8073997 3.6627417,11.4083022 3,11.4083022 L1.2,11.4083022 C0.5372583,11.4083022 0,10.8073997 0,10.066149 L0,6.71076599 C0,3.00440993 2.6862,0 6,0 C9.3138,0 12,3.00440993 12,6.71076599 L12,10.066149 L12,10.0674911 Z" id="Shape"></path>
            </g>
        </g>
    </g>
</svg>