<?xml version="1.0" encoding="UTF-8"?>
<svg width="157px" height="135px" viewBox="0 0 157 135" version="1.1" xmlns="http://www.w3.org/2000/svg" xmlns:xlink="http://www.w3.org/1999/xlink">
    <title></title>
    <defs>
        <polygon id="path-1" points="0 0.105142229 120.278838 0.105142229 120.278838 14.9682189 0 14.9682189"></polygon>
        <polygon id="path-3" points="0 0.0951869018 120.278838 0.0951869018 120.278838 104.0943 0 104.0943"></polygon>
        <polygon id="path-5" points="2.27513501e-05 0.0365282507 8.94888712 0.0365282507 8.94888712 9.65131339 2.27513501e-05 9.65131339"></polygon>
    </defs>
    <g id="功能开发中" stroke="none" stroke-width="1" fill="none" fill-rule="evenodd">
        <g id="页面" transform="translate(-642.000000, -288.000000)">
            <g id="1.组合示例/3.功能区块示例/10.设置出错" transform="translate(642.000000, 288.000000)">
                <g id="编组-2" transform="translate(0.460592, 0.871519)">
                    <path d="M5.52324704,35.3221777 C2.48546117,35.3221777 0,32.8367165 0,29.7989306 L0,5.55801304 C0,2.52022717 2.48546117,0.0347659981 5.52324704,0.0347659981 L29.7641646,0.0347659981 C32.8019505,0.0347659981 35.2874117,2.52022717 35.2874117,5.55801304 L35.2874117,29.7989306 C35.2874117,32.8367165 32.8019505,35.3221777 29.7641646,35.3221777 L5.52324704,35.3221777 Z" id="Fill-7备份-4" fill="#ADC6FF" opacity="0.209519159"></path>
                    <g id="编组-3备份" transform="translate(16.440726, 9.000000)">
                        <g id="分组-copy-3" transform="translate(0.000000, 0.658606)">
                            <g id="分组" transform="translate(0.000000, 0.069513)">
                                <mask id="mask-2" fill="white">
                                    <use xlink:href="#path-1"></use>
                                </mask>
                                <g id="Clip-2"></g>
                                <path d="M120.278838,14.9682189 L-0.000105834013,14.9682189 L-0.000105834013,4.29680661 C-0.000105834013,1.98193102 1.89538133,0.105089833 4.23325467,0.105089833 L116.045478,0.105089833 C118.383528,0.105089833 120.278838,1.98193102 120.278838,4.29680661 L120.278838,14.9682189 Z" id="Fill-1" fill="#393D65" mask="url(#mask-2)"></path>
                            </g>
                            <g id="分组" transform="translate(0.000000, 13.692592)">
                                <mask id="mask-4" fill="white">
                                    <use xlink:href="#path-3"></use>
                                </mask>
                                <g id="Clip-4"></g>
                                <path d="M116.045478,104.0943 L4.23325467,104.0943 C1.89538133,104.0943 -0.000105834013,102.217633 -0.000105834013,99.9025832 L-0.000105834013,0.0951869018 L120.278838,0.0951869018 L120.278838,99.9025832 C120.278838,102.217633 118.383528,104.0943 116.045478,104.0943" id="Fill-3" fill="#ADC6FF" mask="url(#mask-4)"></path>
                            </g>
                            <path d="M9.77461773,7.09152898 C9.77461773,8.54430815 8.58504343,9.72218057 7.11765485,9.72218057 C5.65044265,9.72218057 4.46104474,8.54430815 4.46104474,7.09152898 C4.46104474,5.63874981 5.65044265,4.46087739 7.11765485,4.46087739 C8.58504343,4.46087739 9.77461773,5.63874981 9.77461773,7.09152898" id="Fill-5" fill="#FF7A46"></path>
                            <path d="M19.69638,7.09152898 C19.69638,8.54430815 18.5069821,9.72218057 17.0395935,9.72218057 C15.5723813,9.72218057 14.3829834,8.54430815 14.3829834,7.09152898 C14.3829834,5.63874981 15.5723813,4.46087739 17.0395935,4.46087739 C18.5069821,4.46087739 19.69638,5.63874981 19.69638,7.09152898" id="Fill-7" fill="#FFC53D"></path>
                            <path d="M29.6183187,7.09152898 C29.6183187,8.54430815 28.4289208,9.72218057 26.9615322,9.72218057 C25.49432,9.72218057 24.3049221,8.54430815 24.3049221,7.09152898 C24.3049221,5.63874981 25.49432,4.46087739 26.9615322,4.46087739 C28.4289208,4.46087739 29.6183187,5.63874981 29.6183187,7.09152898" id="Fill-9" fill="#BAE637"></path>
                            <path d="M12.9999281,103.640739 C12.2702484,103.640739 11.678942,103.055548 11.678942,102.333781 L11.678942,26.567483 C11.678942,25.8457157 12.2702484,25.2605254 12.9999281,25.2605254 L108.593086,25.2605254 C109.322601,25.2605254 109.914072,25.8457157 109.914072,26.567483 L109.914072,102.333781 C109.914072,103.055548 109.322601,103.640739 108.593086,103.640739 L12.9999281,103.640739 Z" id="Fill-11" fill="#FFFFFF"></path>
                            <path d="M54,53 C55.1045695,53 56,53.8954305 56,55 L56,71 C56,72.1045695 55.1045695,73 54,73 C52.8954305,73 52,72.1045695 52,71 L52,57 L38,57 C36.8954305,57 36,56.1045695 36,55 C36,53.8954305 36.8954305,53 38,53 L54,53 L54,53 Z" id="形状结合" fill="#ADC6FF" transform="translate(46.000000, 63.000000) rotate(-315.000000) translate(-46.000000, -63.000000) "></path>
                            <rect id="矩形" fill="#ADC6FF" x="63.0986819" y="70.4698758" width="20" height="4" rx="2"></rect>
                        </g>
                    </g>
                    <path d="M148.169966,133.69547 C147.39642,133.69547 146.763553,133.067505 146.763553,132.300117 L146.763553,126.139116 C146.763553,125.371652 147.39642,124.743687 148.169966,124.743687 L154.305929,124.743687 C155.079475,124.743687 155.712417,125.371652 155.712417,126.139116 L155.712417,132.300117 C155.712417,133.067505 155.079475,133.69547 154.305929,133.69547 L148.169966,133.69547 Z" id="Fill-5备份-3" fill="#FF7A46"></path>
                    <g id="分组" transform="translate(140.071510, 9.606641)" stroke-linecap="round" stroke-linejoin="round" stroke-width="1.7704049">
                        <path d="M9.73376803,4.71490218 C9.73376803,7.22289425 7.68040777,9.25592869 5.14771002,9.25592869 C2.61484721,9.25592869 0.561486946,7.22289425 0.561486946,4.71490218 C0.561486946,2.2069101 2.61484721,0.173875666 5.14771002,0.173875666 C7.68040777,0.173875666 9.73376803,2.2069101 9.73376803,4.71490218 Z" id="Stroke-11" stroke="#ADC6FF"></path>
                        <path d="M9.20459797,2.79369865 C9.43106363,3.37538564 9.55737801,4.02186982 9.55737801,4.70323207 C9.55737801,5.25962832 9.47312154,5.79321332 9.31881543,6.28679597" id="Stroke-13" stroke="#597EF7"></path>
                    </g>
                    <g id="分组备份-4" transform="translate(8.821853, 40.535091)">
                        <mask id="mask-6" fill="white">
                            <use xlink:href="#path-5"></use>
                        </mask>
                        <g id="Clip-4"></g>
                        <path d="M7.54239866,9.65131339 L1.40643538,9.65131339 C0.632889473,9.65131339 2.27513501e-05,8.97683378 2.27513501e-05,8.15260451 L2.27513501e-05,1.53525329 C2.27513501e-05,0.710943202 0.632889473,0.036463599 1.40643538,0.036463599 L7.54239866,0.036463599 C8.31594456,0.036463599 8.94888712,0.710943202 8.94888712,1.53525329 L8.94888712,8.15260451 C8.94888712,8.97683378 8.31594456,9.65131339 7.54239866,9.65131339" id="Fill-3" fill="#FFC540" mask="url(#mask-6)"></path>
                    </g>
                </g>
            </g>
        </g>
    </g>
</svg>