<?xml version="1.0" encoding="UTF-8"?>
<svg width="60px" height="60px" viewBox="0 0 60 60" version="1.1" xmlns="http://www.w3.org/2000/svg" xmlns:xlink="http://www.w3.org/1999/xlink">
    <title>空</title>
    <g id="切图" stroke="none" stroke-width="1" fill="none" fill-rule="evenodd">
        <g transform="translate(-248, -24)" id="空">
            <g transform="translate(248, 24)">
                <rect id="Rectangle" fill="#FFFFFF" opacity="0" x="0" y="0" width="60" height="60"></rect>
                <ellipse id="Oval" fill="#0052D9" fill-rule="nonzero" opacity="0.0989350818" cx="30" cy="40.1052632" rx="26.9473684" ry="5.89473684"></ellipse>
                <g id="Group" transform="translate(10, 14)">
                    <path d="M39,11.02 L30.3979565,1.08645455 C29.9850652,0.409363636 29.3822609,0 28.7472391,0 L10.2527609,0 C9.61773913,0 9.01493478,0.409363636 8.60204348,1.08559091 L0,11.0208636 L0,19 L39,19 L39,11.02 Z" id="Path" fill="#C5DFF9"></path>
                    <path d="M27.6501522,11.5313182 C27.6501522,10.1451818 28.4928913,9.00086364 29.5382609,9 L39,9 L39,24.6637727 C39,26.4972727 37.8808696,28 36.498913,28 L2.50108696,28 C1.11913043,28 0,26.4964091 0,24.6637727 L0,9 L9.46173913,9 C10.5071087,9 11.3498478,10.1425909 11.3498478,11.5287273 L11.3498478,11.5477273 C11.3498478,12.9338636 12.201913,14.0531364 13.2464348,14.0531364 L25.7535652,14.0531364 C26.798087,14.0531364 27.6501522,12.9235 27.6501522,11.5373636 L27.6501522,11.5313182 L27.6501522,11.5313182 Z" id="Path" fill="#3074E2" fill-rule="nonzero"></path>
                </g>
            </g>
        </g>
    </g>
</svg>