<?xml version="1.0" encoding="UTF-8"?>
<svg width="60px" height="60px" viewBox="0 0 60 60" version="1.1" xmlns="http://www.w3.org/2000/svg" xmlns:xlink="http://www.w3.org/1999/xlink">
    <title>无结果</title>
    <g id="切图" stroke="none" stroke-width="1" fill="none" fill-rule="evenodd">
        <g transform="translate(-178, -24)" id="无结果">
            <g transform="translate(178, 24)">
                <rect id="Rectangle" fill="#FFFFFF" opacity="0" x="0" y="0" width="60" height="60"></rect>
                <g id="Group" transform="translate(14, 6)">
                    <path d="M20,24 C20,21.332 24.328,19.508 26.6666667,16 C29.3333333,12 29.3333333,2.66666667 29.3333333,2.66666667 L2.66666667,2.66666667 C2.66666667,2.66666667 2.66666667,12 5.33333333,16 C7.672,19.508 12,21.332 12,24 C12,26.668 7.672,28.492 5.33333333,32 C2.66666667,36 2.66666667,45.3333333 2.66666667,45.3333333 L29.3333333,45.3333333 C29.3333333,45.3333333 29.3333333,36 26.6666667,32 C24.328,28.492 20,26.668 20,24" id="Path" fill="#FFE8B6" fill-rule="nonzero"></path>
                    <path d="M19.9986667,32 C18.6666667,32 17.256,30.6666667 17.256,29.3333333 C17.3333333,27.0493333 17.3333333,25.5386667 17.3333333,24 C17.3333333,19.7066667 21.3786667,17.9186667 23.8666667,14.6666667 L8.13333333,14.6666667 C10.62,17.9186667 14.6666667,19.7066667 14.6666667,24 C14.6666667,25.54 14.6666667,27.052 14.744,29.3333333 C14.744,30.6666667 13.3333333,32 12,32 C9.33333333,32 7.20666667,34.3786667 6.66666667,36 C5.33333333,40 5.33333333,45.3333333 5.33333333,45.3333333 L26.6666667,45.3333333 C26.6666667,45.3333333 26.6666667,40 25.3333333,36 C24.7933333,34.3786667 22.6653333,32 19.9986667,32" id="Path" fill="#FFAC33" fill-rule="nonzero"></path>
                    <path d="M32,45.3333333 C32,46.8060927 30.8060927,48 29.3333333,48 L2.66666667,48 C1.19390733,48 0,46.8060927 0,45.3333333 C0,43.860574 1.19390733,42.6666667 2.66666667,42.6666667 L29.3333333,42.6666667 C30.8060927,42.6666667 32,43.860574 32,45.3333333" id="Path" fill="#0052D9"></path>
                    <path d="M32,2.66666667 C32,4.139426 30.8060927,5.33333333 29.3333333,5.33333333 L2.66666667,5.33333333 C1.19390733,5.33333333 0,4.139426 0,2.66666667 C0,1.19390733 1.19390733,0 2.66666667,0 L29.3333333,0 C30.8060927,0 32,1.19390733 32,2.66666667" id="Path" fill="#0052D9"></path>
                </g>
            </g>
        </g>
    </g>
</svg>