<?xml version="1.0" encoding="UTF-8"?>
<svg width="16px" height="16px" viewBox="0 0 16 16" version="1.1" xmlns="http://www.w3.org/2000/svg" xmlns:xlink="http://www.w3.org/1999/xlink">
    <g id="首页优化3.21" stroke="none" stroke-width="1" fill="none" fill-rule="evenodd">
        <g id="导入" fill="#000000" fill-rule="nonzero">
            <rect id="矩形" opacity="0" x="0" y="0" width="16" height="16"></rect>
            <path d="M13.75,15 L2.25,15 C1.97385763,15 1.75,14.7761424 1.75,14.5 L1.75,4.7499997 C1.75,4.47385763 1.97385763,4.2499997 2.25,4.2499997 L5.13328125,4.2499997 C5.44875,4.2499997 5.7128125,4.508125 5.706875,4.8234375 C5.70091648,5.12981803 5.45081346,5.37505794 5.144375,5.375 L2.875,5.375 L2.875,13.875 L13.125,13.875 L13.125,5.375 L10.8698437,5.375 C10.5545313,5.375 10.2903125,5.116875 10.2964062,4.8015625 C10.3023682,4.49499954 10.5527542,4.24968652 10.859375,4.2499997 L13.75,4.2499997 C14.0261424,4.2499997 14.25,4.47385763 14.25,4.7499997 L14.25,14.5 C14.25,14.7761424 14.0261424,15 13.75,15 L13.75,15 Z M10.8082813,8.1153125 C10.7046696,8.00794518 10.5626448,7.94614293 10.4134598,7.9435056 C10.2642749,7.94086827 10.1201543,7.99761196 10.0128125,8.10125 L8.5559375,9.5075 L8.5559375,1.57328125 C8.5559375,1.26262108 8.30409767,1.01078125 7.9934375,1.01078125 C7.68277733,1.01078125 7.4309375,1.26262108 7.4309375,1.57328125 L7.4309375,9.59109375 L5.98546875,8.11265625 C5.84496289,7.9689685 5.63847362,7.91115452 5.44378345,7.96099228 C5.24909327,8.01083005 5.09578026,8.16074801 5.04159595,8.35427353 C4.98741163,8.54779905 5.04058789,8.755531 5.18109375,8.89921875 L7.56484375,11.3367187 C7.75702283,11.5332119 8.07176929,11.5377481 8.26953125,11.346875 L10.7942187,8.909375 C11.0168707,8.6937642 11.0231592,8.33867177 10.8082812,8.1153125 L10.8082813,8.1153125 Z" id="形状"></path>
        </g>
    </g>
</svg>