<svg t="1674114424685" class="icon" viewBox="0 0 1024 1024" version="1.1" xmlns="http://www.w3.org/2000/svg" p-id="12498" width="200" height="200"><path d="M477.915429 507.904L305.517714 371.419429a5.12 5.12 0 0 0-8.338285 4.096V473.234286H137.069714V137.142857h233.179429v146.285714c0 2.486857 2.048 4.608 4.534857 4.608h68.608a4.608 4.608 0 0 0 4.534857-4.608V91.428571a31.963429 31.963429 0 0 0-32.036571-32.036571H91.428571a31.963429 31.963429 0 0 0-32.036571 32.036571v841.142858c0 17.700571 14.336 32.036571 32.036571 32.036571h324.608a31.963429 31.963429 0 0 0 31.963429-32.036571v-192a4.608 4.608 0 0 0-4.608-4.608h-68.534857a4.608 4.608 0 0 0-4.608 4.608v146.285714H137.216V550.838857h160.036571v97.645714c0 4.315429 4.973714 6.802286 8.338286 4.096l172.397714-136.484571a5.12 5.12 0 0 0 0-8.192zM932.571429 59.465143H607.963429a31.963429 31.963429 0 0 0-31.963429 31.963428v192c0 2.486857 2.048 4.608 4.608 4.608h68.534857a4.608 4.608 0 0 0 4.608-4.608v-146.285714h233.106286v336.018286H726.820571V375.515429a5.12 5.12 0 0 0-8.338285-4.096L545.938286 507.904a5.12 5.12 0 0 0 0 8.045714l172.617143 136.630857a5.12 5.12 0 0 0 8.338285-4.096V550.765714h159.963429v336.018286H653.677714v-146.285714a4.608 4.608 0 0 0-4.534857-4.608h-68.608a4.608 4.608 0 0 0-4.534857 4.608v192c0 17.700571 14.262857 32.036571 32.036571 32.036571h324.534858a31.963429 31.963429 0 0 0 32.036571-32.036571V91.428571a31.963429 31.963429 0 0 0-32.036571-32.036571z" fill="#000000" p-id="12499"></path></svg>