<svg t="1674116576762" class="icon" viewBox="0 0 1024 1024" version="1.1" xmlns="http://www.w3.org/2000/svg" p-id="23942" width="200" height="200"><path d="M512 42.666667c259.2 0 469.333333 210.133333 469.333333 469.333333s-210.133333 469.333333-469.333333 469.333333S42.666667 771.2 42.666667 512 252.8 42.666667 512 42.666667z m110.464 640H398.634667c11.946667 69.717333 31.146667 139.477333 57.6 209.322666a387.456 387.456 0 0 0 108.373333 0.426667 1121.237333 1121.237333 0 0 0 57.856-209.706667z m233.6 0.042666h-147.157333a1177.685333 1177.685333 0 0 1-43.861334 181.546667 385.322667 385.322667 0 0 0 191.018667-181.546667z m-543.914667 0h-144.213333a385.536 385.536 0 0 0 187.648 180.096 1173.034667 1173.034667 0 0 1-43.434667-180.096z m-10.112-256H137.514667a385.28 385.28 0 0 0 0 170.666667H302.08a1086.336 1086.336 0 0 1 0-170.666667z m331.392 0h-245.76a1014.101333 1014.101333 0 0 0 0 170.666667h245.717334a1001.472 1001.472 0 0 0 0-170.666667z m253.056 0h-167.466666a1097.984 1097.984 0 0 1 0 170.666667h167.466666a385.28 385.28 0 0 0 0-170.666667zM353.664 161.962667l-0.896 0.469333A385.536 385.536 0 0 0 167.936 341.333333h144.042667c9.130667-59.349333 23.04-119.168 41.685333-179.328zM512 128a386.986667 386.986667 0 0 0-58.410667 4.394667 1198.378667 1198.378667 0 0 0-55.210666 208.981333h224.298666a1202.090667 1202.090667 0 0 0-55.296-209.365333A380.288 380.288 0 0 0 512 128z m154.88 32.512l3.882667 12.501333c16.981333 56.448 29.738667 112.597333 38.357333 168.362667L856.064 341.333333a385.493333 385.493333 0 0 0-189.141333-180.821333z" fill="#000000" opacity=".65" p-id="23943"></path></svg>