<?xml version="1.0" encoding="UTF-8"?>
<svg width="438px" height="268px" viewBox="0 0 438 268" version="1.1" xmlns="http://www.w3.org/2000/svg" xmlns:xlink="http://www.w3.org/1999/xlink">
    <title>插图</title>
    <defs>
        <rect id="path-1" x="0" y="0" width="438" height="268"></rect>
        <polygon id="path-3" points="0.472579435 0.409025971 66.8443607 0.409025971 66.8443607 79.5608485 0.472579435 79.5608485"></polygon>
        <polygon id="path-5" points="0 0.0153470239 36.0889387 0.0153470239 36.0889387 29.3606714 0 29.3606714"></polygon>
        <polygon id="path-7" points="0.0314111589 0.0411748281 7.50982519 0.0411748281 7.50982519 7.45302569 0.0314111589 7.45302569"></polygon>
        <polygon id="path-9" points="0.0185023851 0.0632709824 8.1788584 0.0632709824 8.1788584 8.06038471 0.0185023851 8.06038471"></polygon>
        <polygon id="path-11" points="0 0.274442515 10.1231352 0.274442515 10.1231352 21.4287585 0 21.4287585"></polygon>
        <polygon id="path-13" points="0.0219837319 0.274442515 10.1448701 0.274442515 10.1448701 21.4287585 0.0219837319 21.4287585"></polygon>
        <polygon id="path-15" points="0.0119773483 0.0716396465 21.3867117 0.0716396465 21.3867117 10.6395515 0.0119773483 10.6395515"></polygon>
        <polygon id="path-17" points="0 89.8740644 65.9327137 89.8740644 65.9327137 0 0 0"></polygon>
        <polygon id="path-19" points="0 0 59.9999933 0 59.9999933 59.9999933 0 59.9999933"></polygon>
        <polygon id="path-21" points="0 0.111000409 38.6497108 0.111000409 38.6497108 9.22289531 0 9.22289531"></polygon>
        <polygon id="path-23" points="0.0207055058 0.0238829098 38.7089406 0.0238829098 38.7089406 9.0984335 0.0207055058 9.0984335"></polygon>
    </defs>
    <g id="异常状态页面" stroke="none" stroke-width="1" fill="none" fill-rule="evenodd">
        <g id="500" transform="translate(-369.000000, -256.000000)">
            <g id="插图" transform="translate(369.000000, 256.000000)">
                <mask id="mask-2" fill="white">
                    <use xlink:href="#path-1"></use>
                </mask>
                <use id="矩形" fill-opacity="0" fill="#FFFFFF" xlink:href="#path-1"></use>
                <g id="女_摊手" mask="url(#mask-2)">
                    <g transform="translate(79.000000, 3.000000)">
                        <g transform="translate(0.000000, 53.422328)">
                            <path d="M73.3388722,153.164929 C73.1347902,142.120397 76.1586887,104.676231 76.1586887,104.676231 C76.1586887,104.676231 81.1462547,77.9856233 73.9237415,75.7916811 C73.9237415,75.7916811 55.0693816,76.3162652 56.6514322,104.534069 C56.6514322,104.534069 57.1234756,132.89154 55.8467185,150.896165 C55.8467185,150.896165 55.2917149,160.326209 63.8656494,160.963026 C73.0003947,161.641411 73.3388722,153.164929 73.3388722,153.164929" id="Fill-1" fill="#FFC6A0"></path>
                            <path d="M145.08242,152.707602 C142.706441,141.920789 131.038091,106.219971 131.038091,106.219971 C131.038091,106.219971 119.968715,81.4348262 126.47943,77.611431 C126.47943,77.611431 144.933921,73.7082259 149.973752,101.515341 C149.973752,101.515341 156.12359,129.199416 161.560801,146.406773 C161.560801,146.406773 164.299316,155.446912 156.111146,158.072326 C147.387054,160.869831 145.08242,152.707602 145.08242,152.707602" id="Fill-3" fill="#FFC6A0"></path>
                            <g id="编组" transform="translate(69.686550, 0.000000)">
                                <mask id="mask-4" fill="white">
                                    <use xlink:href="#path-3"></use>
                                </mask>
                                <g id="Clip-6"></g>
                                <path d="M19.5225212,79.255599 C11.2140592,79.7934848 -5.61690188,76.2934861 2.73884735,54.423067 C8.6970474,38.8252107 2.8077043,0.719287135 29.5515772,2.87249296 C33.4590016,-1.43475004 45.8333419,-0.455415502 52.0702882,8.69945034 C59.8585898,20.1305623 58.7120801,32.8411275 65.3057551,56.910477 C71.4771628,76.2610634 57.5556152,79.4567866 50.5214216,79.4567866 C38.0317667,79.4567866 26.4803914,79.7934848 19.5225212,79.255599" id="Fill-5" fill="#2B0849" mask="url(#mask-4)"></path>
                            </g>
                            <path d="M124.832504,75.4471682 C122.585943,74.7396863 120.409897,74.0014443 118.053828,72.9822048 C116.503302,72.3121338 114.726295,71.0044145 114.614299,68.6317314 L113.937344,51.0012156 L93.024742,51.0344697 L92.6232147,67.8968148 C92.5385953,69.5902821 91.818501,71.1507328 90.2547016,71.7958632 C87.7783402,72.8175967 84.7171096,73.2756726 82.303798,73.9997816 C82.303798,73.9997816 93.3930852,81.141109 106.92555,81.141109 C120.458844,81.141109 124.832504,75.4471682 124.832504,75.4471682" id="Fill-7" fill="#FFB48A"></path>
                            <path d="M86.1458498,36.1855799 C86.1458498,36.1855799 82.8639452,32.976555 80.5551634,35.3924686 C78.5583119,37.4808288 80.4821584,47.8070719 87.7113084,47.7089722 L86.1458498,36.1855799 Z" id="Fill-9" fill="#FFB69C"></path>
                            <path d="M119.928645,36.1855799 C119.928645,36.1855799 123.21055,32.976555 125.519332,35.3924686 C127.516183,37.4808288 125.592336,47.8070719 118.363186,47.7089722 L119.928645,36.1855799 Z" id="Fill-11" fill="#FFB69C"></path>
                            <path d="M122.413385,35.3020173 C123.282808,19.0848026 117.392635,7.88148153 103.066242,7.88148153 C88.1624459,7.88148153 83.3855988,19.9419282 84.2906943,35.3020173 C84.2906943,35.3020173 84.3653585,45.9649586 91.6426254,54.1305137 C94.3645489,57.1849068 98.6992182,61.0207723 103.434585,61.1454753 C108.231343,61.2701784 112.971687,57.8616286 116.286776,53.4488037 C119.849916,48.7051001 122.022643,42.5929884 122.413385,35.3020173" id="Fill-13" fill="#FFC6A0"></path>
                            <path d="M92.4083478,30.7718053 C91.5986565,30.7718053 90.7333818,30.7468647 89.8208199,30.6886699 C89.4898087,30.6670547 89.239269,30.3810691 89.260009,30.0485277 C89.2799195,29.7168176 89.5553473,29.4640861 89.8988024,29.4865326 C95.095428,29.8215681 98.8062368,28.9868891 98.8427393,28.9785756 C99.1654544,28.9037537 99.4881695,29.106604 99.5628337,29.4308319 C99.6366682,29.7550598 99.435075,30.077625 99.1115303,30.1524469 C98.9812828,30.1823756 96.3721852,30.7718053 92.4083478,30.7718053" id="Fill-15" fill="#2B0849"></path>
                            <path d="M105.095448,44.2262657 L102.15368,44.2262657 C101.9048,44.2262657 101.703206,44.0242468 101.703206,43.7748407 C101.703206,43.5254346 101.9048,43.3234157 102.15368,43.3234157 L104.639167,43.3234157 L104.522193,34.0388587 C104.521364,33.9731817 104.534637,33.9075048 104.561184,33.8476473 L106.387968,29.7823282 C106.490838,29.5545373 106.75797,29.4547749 106.982792,29.5562001 C107.210103,29.6584565 107.311314,29.9253211 107.209273,30.1531119 L105.42397,34.1269821 L105.545922,43.7690212 C105.547581,43.8895675 105.500294,44.005957 105.416504,44.0915864 C105.331055,44.1780472 105.21657,44.2262657 105.095448,44.2262657" id="Fill-17" fill="#DB836E"></path>
                            <path d="M108.355534,47.4764426 C103.956985,47.8937821 98.847468,47.6069651 98.847468,47.6069651 C98.847468,47.6069651 99.8977439,50.9448498 103.787747,50.9448498 C107.678579,50.9448498 108.355534,47.4764426 108.355534,47.4764426" id="Fill-19" fill="#FFFFFF"></path>
                            <path d="M99.8285551,48.2510979 C100.375263,49.1148743 101.54666,50.3427835 103.787415,50.3427835 C106.034806,50.3427835 107.050239,49.0383897 107.479972,48.1538295 C104.512487,48.3683187 101.389866,48.3051358 99.8285551,48.2510979 M103.787415,51.5465835 C99.50584,51.5465835 98.2863254,47.8254448 98.274711,47.7880339 C98.2158092,47.5993166 98.2523117,47.3939723 98.372604,47.2376778 C98.4937258,47.0813833 98.7011263,46.9957539 98.8803203,47.0057302 C98.930926,47.0082242 103.998134,47.285065 108.298789,46.8768704 C108.487109,46.8577492 108.67294,46.9317397 108.800698,47.0722385 C108.928457,47.2127372 108.981552,47.4056112 108.945049,47.5918345 C108.677917,48.9602425 107.25598,51.5465835 103.787415,51.5465835" id="Fill-21" fill="#C44343"></path>
                            <path d="M113.392296,37.587824 C113.060455,37.587824 112.790834,37.3184655 112.790834,36.985924 C112.790834,35.8710789 112.163655,34.9291552 111.420332,34.9291552 C110.677009,34.9291552 110.049,35.8710789 110.049,36.985924 C110.049,37.3184655 109.780209,37.587824 109.447539,37.587824 C109.115698,37.587824 108.846907,37.3184655 108.846907,36.985924 C108.846907,35.1877062 110.000883,33.7253552 111.420332,33.7253552 C112.838951,33.7253552 113.993757,35.1877062 113.993757,36.985924 C113.993757,37.3184655 113.724136,37.587824 113.392296,37.587824" id="Fill-23" fill="#2B0849"></path>
                            <path d="M96.6511803,37.587824 C96.3193396,37.587824 96.049719,37.3184655 96.049719,36.985924 C96.049719,35.8710789 95.42254,34.9291552 94.6792168,34.9291552 C93.9367232,34.9291552 93.3087147,35.8710789 93.3087147,36.985924 C93.3087147,37.3184655 93.0390941,37.587824 92.7072534,37.587824 C92.3754126,37.587824 92.1057921,37.3184655 92.1057921,36.985924 C92.1057921,35.1877062 93.2605978,33.7253552 94.6792168,33.7253552 C96.0978359,33.7253552 97.2526416,35.1877062 97.2526416,36.985924 C97.2526416,37.3184655 96.983021,37.587824 96.6511803,37.587824" id="Fill-25" fill="#2B0849"></path>
                            <path d="M104.221297,61.6274941 C100.574367,61.6274941 96.9448593,59.6355709 94.7638362,57.7716762 C94.6377367,57.6636002 94.6228039,57.4740516 94.7306521,57.3476858 C94.8376708,57.2213201 95.02682,57.2055244 95.153749,57.3136003 C97.2534712,59.1076614 100.737799,61.0255941 104.221297,61.0255941 C107.082593,61.0255941 109.753911,58.9812956 112.11081,57.1772583 C112.241057,57.0774959 112.431036,57.1016052 112.532247,57.2346217 C112.632629,57.3668069 112.606911,57.5555242 112.475005,57.656118 C110.042612,59.5175187 107.285016,61.6274941 104.221297,61.6274941" id="Fill-27" fill="#DB836E"></path>
                            <path d="M87.5879466,21.8177113 C87.9098321,21.6373076 89.0214985,21.6871888 89.0214985,21.6871888 L86.9375388,24.1671166 L87.8484416,24.2976391 C87.8484416,24.2976391 84.5847882,27.052745 85.1713166,35.667231 C85.2891201,37.40476 85.3737395,39.1780372 84.4620071,37.8728121 C76.1162131,16.0414665 88.5743432,3.71831211 104.578191,3.72080579 C123.333829,3.72413159 128.848192,24.9569025 127.502578,42.8792234 C112.133375,48.100124 114.114464,26.7883745 112.183151,21.0345762 C109.35255,12.5971686 100.483277,18.1630809 100.483277,18.1630809 L96.7060999,16.9883783 L96.8355178,18.4241259 C96.8355178,18.4241259 92.8633844,17.8039362 91.1046286,18.2936034 C88.760174,20.8383768 87.5879466,21.8177113 87.5879466,21.8177113" id="Fill-29" fill="#2B0849"></path>
                            <path d="M115.86567,30.6898338 C115.835805,30.6898338 115.805109,30.6873398 115.775244,30.683183 C111.476247,30.0280764 107.11586,30.1652497 107.072721,30.1677438 C106.744199,30.1768886 106.462964,29.9175063 106.452179,29.5857962 C106.441394,29.2532548 106.701059,28.9747513 107.0329,28.9639437 C107.215412,28.9572929 111.543445,28.8201196 115.954438,29.4926846 C116.28296,29.5425659 116.508612,29.8493353 116.458836,30.1785514 C116.413207,30.4761759 116.15769,30.6898338 115.86567,30.6898338" id="Fill-31" fill="#2B0849"></path>
                            <path d="M104.972252,53.7697893 L102.096023,53.7697893 C101.847142,53.7697893 101.645549,53.5677704 101.645549,53.3183643 C101.645549,53.0689582 101.847142,52.8669393 102.096023,52.8669393 L104.972252,52.8669393 C105.221133,52.8669393 105.422726,53.0689582 105.422726,53.3183643 C105.422726,53.5677704 105.221133,53.7697893 104.972252,53.7697893" id="Fill-33" fill="#DB836E"></path>
                            <path d="M145.310063,186.48766 C143.81512,181.00322 135.183114,164.740281 130.283486,156.71855 C128.23271,153.363207 127.594746,149.335299 128.50316,145.507747 L133.031127,126.448966 C133.031127,126.448966 137.189921,117.324029 136.964269,109.412868 C136.738617,101.501707 134.48293,95.3995714 134.48293,95.3995714 L135.574686,80.0236866 C135.563901,78.9969649 134.842148,78.1207182 133.835841,77.9245188 C131.905357,77.5487469 125.705743,75.5260636 121.944329,74.3388907 C107.755649,69.8587261 91.0549355,72.4483926 85.1805252,73.49091 C80.2112105,74.3729762 76.1337177,75.1486291 73.8050255,75.6000541 C72.5813628,75.8369899 71.7783083,76.46965 71.7783083,78.1830697 L74.0364844,100.371897 C74.0812829,101.378667 70.6533683,110.31738 73.8929633,116.181749 L82.7033343,145.719742 C83.6523987,148.901332 83.5171736,152.31487 82.3042958,155.405012 C77.3291739,168.085648 72.3424375,179.403696 70.6152066,187.569251 C65.0328161,213.962234 87.0952461,225.135626 110.120014,225.135626 C145.355691,225.135626 150.612048,205.94466 145.310063,186.48766" id="Fill-35" fill="#FFB48A"></path>
                            <path d="M106.425714,220.391257 C106.425714,220.391257 107.68588,237.218686 106.323673,303.04277 C105.636763,336.243707 106.966615,452.63238 106.966615,452.63238 L92.587127,452.971572 C92.587127,452.971572 84.3956389,398.542852 77.4842264,363.271844 C72.0743932,335.658434 81.249789,313.478751 79.1956949,303.009515 C62.7314178,219.106816 68.9550904,194.461339 70.5504147,190.001958 C70.7312679,189.498158 71.1701272,189.138182 71.7002428,189.068348 C76.2879407,188.468111 98.8107996,187.285926 106.425714,220.391257" id="Fill-37" fill="#FFC6A0"></path>
                            <path d="M141.854689,370.162768 C134.051454,335.951736 134.941617,335.220144 130.064388,312.73868 C125.187159,290.257216 113.152955,223.577669 113.152955,223.577669 C120.950383,176.994433 145.70487,187.504405 145.70487,187.504405 C145.70487,187.504405 157.224721,215.072091 157.046356,298.122653 C157.001558,318.742716 166.80911,338.407554 168.766141,362.109445 C170.614494,384.477845 172.60139,425.17011 173.728819,449.807274 C164.409072,454.156916 160.083529,451.276276 160.083529,451.276276 C160.083529,451.276276 148.24677,398.187697 141.854689,370.162768" id="Fill-39" fill="#FFC6A0"></path>
                            <path d="M121.567523,54.9372592 C121.235683,54.9372592 120.966062,54.6679006 120.966062,54.3353592 L120.966062,45.6901131 C120.966062,45.3575717 121.235683,45.0882131 121.567523,45.0882131 C121.899364,45.0882131 122.168985,45.3575717 122.168985,45.6901131 L122.168985,54.3353592 C122.168985,54.6679006 121.899364,54.9372592 121.567523,54.9372592" id="Fill-49" fill="#FAD024"></path>
                            <path d="M85.0286251,54.9372592 C84.6967844,54.9372592 84.4271638,54.6679006 84.4271638,54.3353592 L84.4271638,45.6901131 C84.4271638,45.3575717 84.6967844,45.0882131 85.0286251,45.0882131 C85.3604658,45.0882131 85.6300864,45.3575717 85.6300864,45.6901131 L85.6300864,54.3353592 C85.6300864,54.6679006 85.3604658,54.9372592 85.0286251,54.9372592" id="Fill-51" fill="#FAD024"></path>
                            <path d="M77.1943636,126.666115 C77.0732417,126.666115 76.9579271,126.591293 76.9131286,126.469916 C74.6673965,120.440108 73.5515821,116.426333 73.0621171,112.616239 C72.2009904,105.934651 73.5988694,97.9370289 73.7316057,97.2054377 L72.3868212,89.1554408 C72.3594443,88.9916642 72.470611,88.836201 72.6340425,88.8087664 C72.8007925,88.7805004 72.9526096,88.8919017 72.9799865,89.0556784 L74.333067,97.1580506 C74.3388742,97.1929674 74.3380446,97.2287156 74.3314078,97.2636325 C74.3156454,97.3467678 72.7717564,105.661967 73.6577711,112.538924 C74.141429,116.300799 75.2472882,120.2755 77.4755986,126.259583 C77.5336707,126.415046 77.4540289,126.588799 77.299723,126.646994 C77.2648797,126.659464 77.2292068,126.666115 77.1943636,126.666115" id="Fill-53" fill="#DB836E"></path>
                            <path d="M132.791455,127.118122 C132.754123,127.118122 132.715961,127.11064 132.678629,127.096507 C132.525153,127.034155 132.451318,126.85874 132.512709,126.704108 C135.303489,119.768956 136.316433,116.45435 136.438384,111.665753 C136.575269,106.348415 133.772044,96.2599393 133.743008,96.1585141 C133.733053,96.1202719 133.729734,96.0811983 133.734712,96.0412933 L134.636489,88.5823888 C134.6564,88.4177808 134.78167,88.2964031 134.970819,88.319681 C135.13508,88.3396335 135.252883,88.4901085 135.232143,88.6547166 L134.337833,96.0545949 C134.591691,96.9699153 137.173412,106.427394 137.039016,111.680717 C136.914576,116.561594 135.890847,119.919431 133.070201,126.929405 C133.022914,127.046626 132.910918,127.118122 132.791455,127.118122" id="Fill-55" fill="#DB836E"></path>
                            <path d="M75.1074173,173.775183 L139.868622,173.775183 C139.868622,173.775183 143.562839,181.234087 145.817696,187.675415 C136.232477,188.353799 115.875708,196.659022 113.210198,224.969937 L106.798206,224.969937 C106.798206,224.969937 104.673595,189.77292 70.4276336,188.691329 C71.7243012,181.797745 75.1074173,173.775183 75.1074173,173.775183" id="Fill-65" fill="#2B0849"></path>
                            <path d="M108.60259,119.190251 L99.4678443,119.190251 C98.7236915,119.190251 98.1139341,118.580038 98.1139341,117.834313 C98.1139341,117.087758 98.7236915,116.477544 99.4678443,116.477544 L108.60259,116.477544 C109.346742,116.477544 109.95567,117.087758 109.95567,117.834313 C109.95567,118.580038 109.346742,119.190251 108.60259,119.190251" id="Fill-67" fill="#2B0849"></path>
                            <path d="M73.2513492,103.647597 L101.662722,116.588447 C101.99871,116.742247 102.119832,117.157093 101.918239,117.467188 C100.029236,120.3736 90.1644409,132.92122 77.8149887,126.1407 C70.4389992,122.090345 71.9820585,107.593201 72.4051554,104.115649 C72.4549315,103.711611 72.8821764,103.478832 73.2513492,103.647597" id="Fill-69" fill="#2B0849"></path>
                            <path d="M135.374254,104.657608 L106.572139,116.986582 C106.572139,116.986582 116.045362,135.125055 131.439453,126.140617 C138.714231,121.894062 136.845968,108.3006 136.212982,105.08243 C136.137488,104.700839 135.727664,104.496326 135.374254,104.657608" id="Fill-71" fill="#2B0849"></path>
                            <path d="M85.7828991,72.1348892 C85.7828991,72.1348892 89.3983037,76.8353624 96.0633244,79.4241975 C103.519785,82.3214648 115.347418,81.1193275 119.915205,73.2646987 C128.485822,76.4296619 135.104385,77.8986637 135.104385,77.8986637 L136.154661,90.7821504 C136.154661,90.7821504 139.767576,102.603999 138.522344,113.836417 C137.168434,126.042351 132.28125,151.165856 132.28125,151.165856 C132.28125,151.165856 135.979615,158.098514 130.589692,159.641506 C97.2463366,161.414784 81.4971762,156.590439 81.4971762,156.590439 C81.4971762,156.590439 76.687145,152.108611 80.2959128,148.039967 C75.5945595,129.770972 72.8875688,126.719904 71.8721363,116.549124 C70.9255606,107.060054 73.6765201,88.1825077 73.6765201,88.1825077 L71.2308541,75.6772869 L85.7828991,72.1348892 Z" id="Fill-73" fill="#E5E3EA"></path>
                            <path d="M71.2308541,75.6772869 C71.2308541,75.6772869 56.0839846,76.8810869 53.8282973,99.4839285 C53.7826692,101.243904 53.8432302,100.932978 53.8282973,102.195804 C53.8133645,103.592478 52.9182242,106.514686 52.9265202,107.395089 C52.9480898,109.605659 53.6034752,111.915159 53.6034752,111.915159 L50.7313938,144.427736 C50.6326712,145.545906 51.3121151,146.584267 52.378983,146.925122 C54.8163531,147.704931 59.156,149.293648 61.9492692,151.469301 C64.9067996,153.775475 70.9794847,153.260868 74.0564778,152.811937 C75.1581889,152.651485 75.9969163,151.754455 76.0939798,150.643766 L78.639198,121.634514 C78.639198,121.634514 83.2202591,81.2540068 71.2308541,75.6772869" id="Fill-75" fill="#E5E3EA"></path>
                            <path d="M128.034269,119.374147 L136.172663,155.147292 C136.374256,156.033515 137.108454,156.701923 138.01106,156.791709 C140.367959,157.02532 145.113281,156.978764 149.687706,153.842898 C154.071321,150.837555 159.294494,148.829836 162.172383,147.857152 C163.38775,147.447295 164.059727,146.158697 163.717102,144.920811 C162.105185,139.106324 157.653542,119.328422 154.76238,105.021658 C155.889809,100.953013 152.973758,101.020353 152.619518,98.6933944 C149.687706,79.4808127 134.21978,77.8987468 135.104136,77.8987468 C135.104136,77.8987468 123.298073,90.8952976 128.034269,119.374147" id="Fill-77" fill="#E5E3EA"></path>
                            <path d="M119.637787,80.2024276 C119.500902,80.2024276 119.365677,80.1400761 119.27691,80.0211925 C119.128411,79.8216677 119.169062,79.5390075 119.368166,79.3893638 C121.154299,78.0492218 122.099215,76.9401961 122.108341,76.9285572 C122.269284,76.7390085 122.553007,76.7157306 122.742986,76.8753505 C122.932965,77.0366331 122.957023,77.3209561 122.79691,77.511336 C122.75626,77.5595545 121.784796,78.7043284 119.907407,80.1126414 C119.826936,80.1733303 119.731532,80.2024276 119.637787,80.2024276" id="Fill-79" fill="#C2C0CC"></path>
                            <path d="M104.326573,85.2433402 C103.483698,85.2433402 102.633356,85.2050979 101.774718,85.1294447 C98.6902585,84.8550981 95.4066946,83.9040295 92.0144529,82.3011798 C91.7896308,82.1955979 91.6925674,81.9262393 91.7987564,81.7009425 C91.9057751,81.4748143 92.1778845,81.3792087 92.3985585,81.4847906 C95.6945664,83.0419159 98.8760893,83.9647184 101.85436,84.2299201 C106.496811,84.6414402 110.901167,83.9007041 114.945476,82.0276645 C115.167809,81.9229139 115.438259,82.021845 115.543619,82.2479732 C115.647319,82.4741013 115.548596,82.7426286 115.322945,82.8473791 C111.883416,84.4402526 108.194177,85.2433402 104.326573,85.2433402" id="Fill-81" fill="#C2C0CC"></path>
                            <path d="M87.9281663,80.0004918 C87.8468654,80.0004918 87.7647348,79.9780453 87.6909002,79.9323208 C85.0842914,78.3053619 83.4873079,76.9427733 83.4201102,76.8854099 C83.2317906,76.723296 83.210221,76.4381417 83.3711637,76.248593 C83.532936,76.0598758 83.8183191,76.0374292 84.0058091,76.1987118 C84.0224011,76.2128448 85.6235326,77.5770961 88.1670916,79.1658128 C88.3786401,79.2979981 88.4425194,79.5765015 88.3114424,79.7876653 C88.2259934,79.9248387 88.0791539,80.0004918 87.9281663,80.0004918" id="Fill-83" fill="#C2C0CC"></path>
                            <path d="M131.58679,152.768872 C131.546969,152.768872 131.506319,152.763884 131.465668,152.752245 C131.225913,152.685737 131.085711,152.437162 131.152908,152.196901 C131.216788,151.964122 137.60804,128.864131 139.105471,123.877672 C142.184123,113.630408 137.35833,100.225662 137.309383,100.090983 C137.291132,100.041933 137.282006,99.9887264 137.282006,99.9355198 L137.282006,91.572934 C137.282006,91.3235279 137.4836,91.121509 137.73248,91.121509 C137.981361,91.121509 138.182954,91.3235279 138.182954,91.572934 L138.182954,99.8565412 C138.620984,101.0778 143.04525,113.898104 139.969087,124.137886 C138.474144,129.1152 132.085381,152.205215 132.020672,152.437994 C131.965918,152.637519 131.784235,152.768872 131.58679,152.768872" id="Fill-85" fill="#C2C0CC"></path>
                            <path d="M118.109826,160.284392 C118.048436,160.284392 117.985386,160.271922 117.924825,160.244487 C117.698344,160.143062 117.597132,159.875366 117.699173,159.647575 L125.593664,142.017891 C125.694875,141.7901 125.962007,141.688675 126.188488,141.790931 C126.415799,141.893188 126.517011,142.160052 126.41497,142.387843 L118.520479,160.017528 C118.445815,160.185461 118.281554,160.284392 118.109826,160.284392" id="Fill-87" fill="#C2C0CC"></path>
                            <path d="M113.837045,160.793014 C95.4522398,160.793014 81.7397518,156.928051 81.5605578,156.876507 C81.5033153,156.860712 81.4510504,156.833277 81.4045927,156.796698 C81.3523277,156.75513 76.1880566,152.576747 79.9411751,147.762378 C80.0929922,147.565347 80.3783752,147.531262 80.5725021,147.684231 C80.7691177,147.838031 80.803961,148.121523 80.6504846,148.317722 C77.6299045,152.193493 81.3208029,155.547173 81.8965465,156.032684 C83.4993372,156.474964 106.336615,162.555484 132.204429,158.507623 C132.692234,157.930664 134.706508,155.155606 131.920705,151.436961 C131.771377,151.237436 131.811197,150.954776 132.010302,150.805132 C132.209406,150.655488 132.490641,150.695393 132.641629,150.894918 C136.187347,155.627814 132.790128,159.208454 132.755284,159.244203 C132.687257,159.314036 132.598489,159.359761 132.503085,159.374725 C125.998178,160.402278 119.68159,160.793014 113.837045,160.793014" id="Fill-89" fill="#C2C0CC"></path>
                            <path d="M97.360075,158.702077 C97.2215315,158.702077 97.0846472,158.638063 96.9967094,158.517516 L88.0867862,146.311583 C87.9407763,146.110395 87.9839156,145.827735 88.1846792,145.680585 C88.3854428,145.533436 88.6666778,145.576666 88.814347,145.778685 L97.7234406,157.983787 C97.8702801,158.184975 97.8263112,158.467635 97.6255476,158.614785 C97.5459058,158.673811 97.4521608,158.702077 97.360075,158.702077" id="Fill-91" fill="#C2C0CC"></path>
                            <path d="M71.2769799,148.728411 C68.3136423,148.728411 63.8968424,148.338506 62.0576152,146.186963 C59.447688,143.135064 52.8100441,140.158818 52.7428463,140.128889 C52.5155355,140.027464 52.4134944,139.761431 52.5147059,139.532809 C52.6159173,139.305018 52.8813898,139.202761 53.1095303,139.304186 C53.3891061,139.428058 60.0002028,142.394328 62.7412071,145.599196 C65.2656854,148.550501 73.9939258,147.713328 74.0835228,147.704183 C74.3133225,147.682568 74.5522478,147.859646 74.5763062,148.108221 C74.6011943,148.356796 74.4203411,148.577936 74.1722902,148.602876 C74.0403835,148.616178 72.8673266,148.728411 71.2769799,148.728411" id="Fill-93" fill="#C2C0CC"></path>
                            <path d="M140.881732,152.350785 C138.559676,152.350785 136.810876,151.718125 136.673991,151.666581 C136.440873,151.58012 136.32224,151.320738 136.408519,151.087127 C136.495627,150.852686 136.75944,150.734633 136.987581,150.820263 C137.047312,150.842709 142.983942,152.975131 147.358433,149.097698 C152.304519,144.713139 156.381182,143.313971 158.816893,142.478461 C159.311335,142.308033 159.746876,142.159221 160.119367,142.009577 C160.350826,141.917297 160.61298,142.02953 160.705896,142.261477 C160.797982,142.492594 160.685985,142.755301 160.455356,142.848413 C160.069591,143.002213 159.619118,143.156845 159.108912,143.332261 C156.582775,144.199363 152.765777,145.509576 147.955746,149.773589 C145.657749,151.810405 143.025423,152.350785 140.881732,152.350785" id="Fill-95" fill="#C2C0CC"></path>
                            <path d="M82.0221482,152.2605 C81.832999,152.2605 81.657953,152.140785 81.5940737,151.951236 C81.5235576,151.737578 74.4686239,130.50647 73.1254986,124.789251 C71.8047726,119.161819 72.6907873,105.574176 72.7729179,104.377026 L70.4176784,93.5910448 C70.3637543,93.3474582 70.5180602,93.1063657 70.7611335,93.053159 C71.0000588,93.0016151 71.2439618,93.1537528 71.2970563,93.3981708 L73.666399,104.247335 C73.6755246,104.288903 73.678843,104.332133 73.6755246,104.375364 C73.6655694,104.520019 72.6808321,118.951486 74.0023877,124.582244 C75.3363874,130.260389 82.378877,151.452424 82.4502228,151.666082 C82.5282053,151.903018 82.4004466,152.158243 82.1648397,152.237222 C82.1175524,152.253018 82.0694355,152.2605 82.0221482,152.2605" id="Fill-97" fill="#C2C0CC"></path>
                            <path d="M71.1967574,104.795197 C71.0490883,104.795197 70.903908,104.72287 70.818459,104.589853 C66.4165919,97.8043449 65.3787601,91.1302382 65.33728,90.8492406 C65.2999479,90.6023286 65.4700163,90.372875 65.7155784,90.3354641 C65.9545037,90.2988846 66.1909402,90.4676493 66.2282723,90.7145614 C66.2373979,90.781901 67.2843554,97.4842737 71.5733966,104.097692 C71.7094513,104.306361 71.6505496,104.586528 71.44149,104.722038 C71.3659962,104.771919 71.2805472,104.795197 71.1967574,104.795197" id="Fill-99" fill="#C2C0CC"></path>
                            <path d="M138.860407,102.421849 C138.805653,102.421849 138.75007,102.411873 138.696146,102.391089 C138.463857,102.29964 138.350202,102.037764 138.440628,101.805816 C141.413091,94.1939425 140.897909,84.9118795 140.892102,84.8195993 C140.877169,84.5701932 141.066318,84.3565353 141.315198,84.3415709 C141.536702,84.332426 141.777287,84.5153238 141.79139,84.7647299 C141.797197,84.8595042 142.326483,94.3344412 139.280185,102.135032 C139.210499,102.312942 139.04043,102.421849 138.860407,102.421849" id="Fill-101" fill="#C2C0CC"></path>
                            <path d="M112.697172,99.2573847 C112.532081,99.2573847 112.372798,99.1659358 112.294815,99.0079786 C112.182819,98.7843445 112.273246,98.5133232 112.495579,98.4019218 C116.852648,96.2187873 126.216363,82.6386262 126.310108,82.5014529 C126.45197,82.2961085 126.732375,82.2445646 126.936457,82.3858947 C127.141369,82.5272248 127.193634,82.8090537 127.052602,83.0143981 C126.662689,83.5813812 117.460746,96.9237751 112.898765,99.2099975 C112.834056,99.2424203 112.7652,99.2573847 112.697172,99.2573847" id="Fill-103" fill="#C2C0CC"></path>
                            <path d="M103.722208,81.5028309 C103.562095,81.5028309 103.399493,81.5011682 103.236062,81.4978428 C91.4075992,81.2700519 85.4659912,72.4726681 85.4070894,72.3837133 C85.2702052,72.1758749 85.3266181,71.8965401 85.5340185,71.7585354 C85.741419,71.6205307 86.0218244,71.6787254 86.1587087,71.8857325 C86.214292,71.9705306 91.9128267,80.3763468 103.254313,80.5949928 C114.582525,80.8128074 119.482983,73.1053282 119.531929,73.027181 C119.663836,72.8151858 119.940923,72.7495089 120.152472,72.8816941 C120.36402,73.013048 120.428729,73.2907201 120.297652,73.5027152 C120.245387,73.5875133 118.984392,75.6027144 116.244218,77.6054453 C113.790255,79.398675 109.646395,81.5028309 103.722208,81.5028309" id="Fill-105" fill="#C2C0CC"></path>
                            <path d="M108.073553,249.451721 C108.073553,233.630231 108.260213,224.853631 108.260213,224.853631 L112.809749,224.853631 L114.501307,249.790914 C140.213985,254.197919 158.821953,244.479395 158.821953,244.479395 C153.859275,210.575133 150.918337,202.175136 148.672605,193.171577 C145.288659,179.609705 135.213145,165.444271 135.213145,165.444271 L132.771627,159.267314 C105.028084,162.767313 81.524636,155.804726 81.524636,155.804726 L78.818475,164.280376 C78.818475,164.280376 70.2146748,177.720039 67.8129777,188.76374 C62.0613484,215.209098 65.4444645,230.430351 65.4444645,246.365737 C65.4444645,246.365737 71.5345713,249.077612 83.3754776,249.755997 C95.2172136,250.43355 108.073553,249.451721 108.073553,249.451721" id="Fill-107" fill="#6297CC"></path>
                            <path d="M113.486206,164.183773 C113.486206,165.025934 112.805103,165.709307 111.963887,165.709307 C111.122671,165.709307 110.441568,165.025934 110.441568,164.183773 C110.441568,163.340781 111.122671,162.658239 111.963887,162.658239 C112.805103,162.658239 113.486206,163.340781 113.486206,164.183773" id="Fill-109" fill="#FFFFFF"></path>
                            <path d="M114.980983,169.847203 C96.1357487,169.847203 80.4106468,165.188298 80.2007575,165.124283 C79.9618322,165.052787 79.8274367,164.800887 79.8987824,164.562288 C79.9709578,164.322859 80.2214975,164.186517 80.4604229,164.259676 C80.7399987,164.344474 108.7374,172.634732 134.704765,166.963238 C134.940372,166.911694 135.187594,167.063831 135.240688,167.308249 C135.293783,167.552667 135.140306,167.792928 134.896403,167.846135 C128.224746,169.302667 121.419522,169.847203 114.980983,169.847203" id="Fill-111" fill="#4670B2"></path>
                            <path d="M110.006608,223.178453 C109.763534,223.178453 109.5636,222.985579 109.556134,222.741161 L107.904397,169.454721 C107.89693,169.205315 108.091887,168.996645 108.340767,168.989163 C108.602921,168.989994 108.797878,169.177049 108.805344,169.426455 L110.457081,222.712895 C110.464548,222.962302 110.268762,223.17014 110.020711,223.178453 C110.015733,223.178453 110.011585,223.178453 110.006608,223.178453" id="Fill-113" fill="#4670B2"></path>
                            <path d="M108.25424,167.698736 C108.011166,167.698736 107.811232,167.505031 107.803766,167.260613 L107.622913,161.163465 C107.615446,160.914059 107.811232,160.706221 108.060113,160.698739 C108.064261,160.698739 108.069239,160.697907 108.073387,160.697907 C108.31646,160.697907 108.516394,160.891613 108.52386,161.136031 L108.704714,167.234009 C108.71218,167.482584 108.516394,167.691254 108.268343,167.698736 C108.263365,167.698736 108.258388,167.698736 108.25424,167.698736" id="Fill-115" fill="#4670B2"></path>
                            <path d="M109.765194,203.946252 C109.559452,203.946252 109.373621,203.804922 109.326334,203.595421 C109.269921,203.352665 109.421738,203.10991 109.664812,203.054209 C109.722054,203.040908 115.46041,201.708248 117.041631,200.123688 C118.032175,198.997204 117.287193,183.667875 116.082611,169.816693 C116.061041,169.568118 116.245213,169.349472 116.492434,169.327857 C116.725553,169.30541 116.958671,169.489139 116.98024,169.738545 C117.404167,174.611109 119.429225,199.00718 117.677935,200.762168 C115.915032,202.528794 110.111967,203.878081 109.865575,203.934613 C109.831562,203.942926 109.798378,203.946252 109.765194,203.946252" id="Fill-117" fill="#4670B2"></path>
                            <path d="M76.8063588,178.41929 C75.6225171,178.41929 74.3723072,178.165727 73.0631955,177.65777 C72.8317366,177.567984 72.7155924,177.306108 72.806019,177.073329 C72.8964456,176.841381 73.1577701,176.725823 73.389229,176.815609 C75.9054113,177.791618 78.1627577,177.7434 80.0949003,176.670122 C84.5556691,174.191857 85.964333,167.053024 85.9784362,166.980696 C86.0248939,166.735447 86.2679672,166.577489 86.5044037,166.622383 C86.7491363,166.668938 86.910079,166.905043 86.8627917,167.150292 C86.8047196,167.459556 85.3645309,174.772142 80.5337597,177.458245 C79.3814428,178.099219 78.1362105,178.41929 76.8063588,178.41929" id="Fill-125" fill="#4670B2"></path>
                            <path d="M142.613028,181.420809 C136.595926,181.420809 133.385367,178.038863 131.745244,175.173187 C129.956623,172.045635 129.629759,168.936372 129.616486,168.80585 C129.591598,168.557275 129.771621,168.336135 130.018843,168.311194 C130.259427,168.29041 130.487568,168.467489 130.512456,168.715232 C130.515774,168.745992 130.840149,171.787084 132.541662,174.749197 C134.793201,178.664872 138.304905,180.606083 142.911684,180.514634 C142.915003,180.514634 142.918321,180.514634 142.92081,180.514634 C143.165542,180.514634 143.366306,180.710833 143.371376,180.957745 C143.376261,181.20632 143.178816,181.412496 142.929935,181.417484 C142.823746,181.419978 142.717557,181.420809 142.613028,181.420809" id="Fill-127" fill="#4670B2"></path>
                            <path d="M142.598427,184.875499 C140.697809,184.875499 138.917483,184.573718 137.286486,183.974312 C137.052539,183.888682 136.933076,183.6293 137.018525,183.394858 C137.104803,183.160417 137.36281,183.041533 137.597587,183.126331 C139.552129,183.845452 141.748085,184.10816 144.123235,183.906141 C144.374604,183.885357 144.589471,184.069917 144.610211,184.318492 C144.630951,184.567067 144.447609,184.785713 144.199558,184.806497 C143.656998,184.852221 143.123564,184.875499 142.598427,184.875499" id="Fill-129" fill="#4670B2"></path>
                            <path d="M134.922204,182.758956 C134.840074,182.758956 134.757113,182.736509 134.682449,182.689122 C133.156812,181.722258 131.793776,180.437817 130.632333,178.870715 C130.483005,178.670359 130.525315,178.387699 130.724419,178.238886 C130.923523,178.090905 131.206418,178.129979 131.354916,178.331998 C132.45082,179.809313 133.732555,181.018102 135.163618,181.92594 C135.374337,182.058956 135.436557,182.338291 135.303821,182.548623 C135.217542,182.684965 135.072362,182.758956 134.922204,182.758956" id="Fill-131" fill="#4670B2"></path>
                            <path d="M129.550864,176.762486 C129.390751,176.762486 129.233956,176.676025 129.153485,176.523887 C127.921526,174.211061 127.49843,172.327214 127.481837,172.248236 C127.427913,172.004649 127.58139,171.764388 127.824463,171.71035 C128.070025,171.656312 128.30895,171.810944 128.361215,172.053699 C128.365363,172.071989 128.778505,173.901798 129.948244,176.098234 C130.065217,176.318543 129.983087,176.592058 129.763242,176.709279 C129.696045,176.745027 129.62304,176.762486 129.550864,176.762486" id="Fill-133" fill="#4670B2"></path>
                            <path d="M76.8022938,181.997769 C75.145579,181.997769 73.3403655,181.722591 71.4115413,181.174729 C71.172616,181.106558 71.0332429,180.85632 71.1012703,180.61689 C71.168468,180.37746 71.4140301,180.236962 71.6579331,180.305964 C74.208129,181.030904 76.5218884,181.257033 78.5245471,180.981023 C78.7659612,180.946938 78.9982497,181.118196 79.0322634,181.366771 C79.0662771,181.613683 78.8937199,181.841474 78.6481577,181.87556 C78.0558221,181.957032 77.4402575,181.997769 76.8022938,181.997769" id="Fill-135" fill="#4670B2"></path>
                            <path d="M80.955944,181.282555 C80.7742612,181.282555 80.6025336,181.171985 80.5345063,180.991581 C80.4465685,180.757971 80.5627128,180.496926 80.7966605,180.408802 C82.4790929,179.767829 83.906008,178.674599 85.0359256,177.157379 C85.1860835,176.957022 85.4673185,176.917117 85.6672526,177.06593 C85.866357,177.214742 85.9070075,177.498234 85.7585088,177.697758 C84.5240613,179.354646 82.9619211,180.550964 81.1152276,181.253458 C81.0629626,181.27341 81.0090385,181.282555 80.955944,181.282555" id="Fill-137" fill="#4670B2"></path>
                            <path d="M86.7745221,175.525598 C86.7123019,175.525598 86.6484226,175.512296 86.5870321,175.484861 C86.3613804,175.381774 86.2618282,175.114078 86.3646988,174.887118 C87.3519249,172.712297 87.5493702,170.771086 87.5510294,170.751965 C87.5750878,170.503391 87.8065467,170.322155 88.0421536,170.345433 C88.2902045,170.369543 88.4718873,170.589851 88.4486585,170.837595 C88.4403625,170.922393 88.2387692,172.942582 87.1843454,175.261227 C87.1088516,175.427498 86.94542,175.525598 86.7745221,175.525598" id="Fill-139" fill="#4670B2"></path>
                            <path d="M117.080871,160.866922 C97.8507015,160.866922 81.9090735,156.217992 81.7074803,156.158135 C81.4693846,156.08747 81.3325003,155.836401 81.403846,155.596971 C81.4743622,155.358373 81.7215835,155.220368 81.9638272,155.292696 C82.2160262,155.367518 107.479889,162.731648 132.702273,158.821792 C132.944516,158.785212 133.177635,158.951483 133.216626,159.198395 C133.254787,159.445307 133.086378,159.675592 132.839987,159.713834 C127.510625,160.5402 122.179604,160.866922 117.080871,160.866922" id="Fill-145" fill="#4670B2"></path>
                            <path d="M74.5792099,150.113695 C70.8576162,137.569401 58.8814848,127.653015 51.9120002,116.210264 C41.9758595,99.8982752 35.2585738,88.8662129 35.2585738,88.8662129 C35.2585738,88.8662129 32.9655545,90.1040984 26.6497961,94.6599161 C37.3641032,116.887817 40.6783623,135.531753 55.6327642,159.606922 C55.6327642,159.606922 62.4869342,168.307869 69.1660582,163.674735 C75.8443526,159.042433 74.5792099,150.113695 74.5792099,150.113695" id="Fill-179" fill="#FFC6A0"></path>
                            <g id="编组" transform="translate(0.000000, 67.339642)">
                                <mask id="mask-6" fill="white">
                                    <use xlink:href="#path-5"></use>
                                </mask>
                                <g id="Clip-182"></g>
                                <path d="M3.33309111,4.29843065 C10.7331391,8.88833388 19.4240474,9.53595833 19.4240474,9.53595833 C19.4240474,9.53595833 15.4602101,3.9750341 15.8127908,0.79676929 C16.0060881,-0.953230038 17.3981599,0.355320529 19.3361096,3.53358534 C20.8692137,6.04676727 24.0449294,8.14344105 27.5284273,9.88928361 C35.2802264,13.7725363 36.0724961,22.6888036 36.0724961,22.6888036 C36.4250769,28.2206305 31.0334949,30.9216983 26.9991414,28.4259748 C22.2430343,25.4838144 8.35798915,21.3727709 3.39199284,17.9509195 C-0.36610327,15.3620844 -0.864693945,14.1183794 1.86469594,15.0087591 C3.07425535,15.4028207 4.07309591,16.1709914 5.27187049,16.5974758 C6.78008655,17.1345302 8.43099411,17.3565016 9.96907583,17.4213472 C5.77046117,15.185006 2.51178534,12.4781187 0.749711137,9.41790612 C-0.0715946345,7.9921347 -0.36610327,6.35852487 0.631907683,6.47574573 C0.631907683,6.47574573 -0.36610327,4.12218369 1.92442727,4.70995069 C2.39398188,4.18037844 3.33309111,4.29843065 3.33309111,4.29843065" id="Fill-181" fill="#FFC6A0" mask="url(#mask-6)"></path>
                            </g>
                            <path d="M28.7695945,86.869551 C24.1105509,86.869551 22.016636,80.594494 21.7868363,79.856252 L19.2772909,76.9947329 C19.1628058,76.8642104 19.1760794,76.6663482 19.3054973,76.5516214 C19.4340856,76.437726 19.63319,76.4501963 19.7468455,76.5807188 L22.3011894,79.4929505 C22.3318847,79.5278673 22.3551135,79.569435 22.3667279,79.6143281 C22.3899568,79.691644 24.6406664,87.3442539 29.9235706,86.1038743 C30.093639,86.063138 30.2595594,86.1687199 30.2993802,86.3374847 C30.3392011,86.5062494 30.2346713,86.6750142 30.0654325,86.7140878 C29.6141292,86.8205011 29.181077,86.869551 28.7695945,86.869551" id="Fill-183" fill="#E59788"></path>
                            <path d="M12.3769121,82.3088283 C12.3511944,82.3088283 12.3246471,82.3055028 12.2980999,82.298852 C10.8122831,81.9106099 5.69364004,80.302772 2.17944686,75.924864 C0.939192186,74.3793776 0.493696025,74.0975487 0.474615184,74.0867411 C0.330264472,73.9977863 0.279658763,73.8082377 0.364278146,73.6602568 C0.448897528,73.5131072 0.631409922,73.4582378 0.780738244,73.5397105 C0.866187229,73.5862663 1.35731149,73.8996866 2.66725271,75.5316337 C6.06198324,79.7607295 11.0171947,81.3161921 12.4557242,81.6919639 C12.6233038,81.7360256 12.722856,81.9064531 12.6797167,82.0743865 C12.6423846,82.2157166 12.5162852,82.3088283 12.3769121,82.3088283" id="Fill-185" fill="#E59788"></path>
                            <path d="M13.962364,79.4841381 C13.9391352,79.4841381 13.9150767,79.4816441 13.8910183,79.4758246 C13.6720034,79.4242807 8.50192506,78.1963714 5.74598792,75.8802203 C4.10918358,74.5043301 2.22681712,72.7069436 2.20690668,72.6886538 C2.08246641,72.5689389 2.0774888,72.3710767 2.19695146,72.2455423 C2.31558452,72.1200079 2.51468894,72.1158512 2.63995882,72.2347347 C2.65821005,72.2530245 4.52647329,74.0371093 6.14751518,75.3996979 C8.79145609,77.6210747 13.9806153,78.8531407 14.0337098,78.865611 C14.2012894,78.9046847 14.3066488,79.0734494 14.2668279,79.2413829 C14.2328142,79.3868698 14.1050555,79.4841381 13.962364,79.4841381" id="Fill-187" fill="#E59788"></path>
                            <path d="M11.4079372,84.7806088 C11.3664571,84.7806088 11.324977,84.7722952 11.2859857,84.7556682 C11.1258726,84.6874972 11.052038,84.503768 11.1200653,84.3441481 C11.2154696,84.120514 13.4777936,78.8530576 16.1673626,77.0556711 C16.3108837,76.9608968 16.5058402,76.9991391 16.6012444,77.1429633 C16.6974782,77.2867874 16.6584869,77.4813242 16.5141362,77.5777612 C13.9805323,79.2703971 11.7182082,84.5370222 11.695809,84.5902288 C11.6452033,84.7091124 11.529059,84.7806088 11.4079372,84.7806088" id="Fill-189" fill="#E59788"></path>
                            <path d="M26.1187679,87.9584579 C26.0382966,87.9584579 25.9586548,87.9276978 25.8972643,87.8661777 C24.0605259,86.0255608 17.870867,85.4028769 17.8078172,85.3970575 C17.63526,85.3804304 17.5099902,85.22663 17.5274118,85.0545398 C17.5431742,84.8824496 17.6949914,84.7544211 17.8683781,84.7727109 C18.1321915,84.7984829 24.3450793,85.4244921 26.3402716,87.4230662 C26.4622231,87.5452752 26.4622231,87.7439687 26.3402716,87.8661777 C26.2788811,87.9276978 26.1992393,87.9584579 26.1187679,87.9584579" id="Fill-191" fill="#E59788"></path>
                            <path d="M138.236546,152.334989 C141.95814,139.790695 153.934271,129.874309 160.903756,118.431558 C170.839897,102.119569 177.557182,91.0875066 177.557182,91.0875066 C177.557182,91.0875066 179.850202,92.3253921 186.16596,96.8812098 C175.451653,119.109111 172.137394,137.753047 157.182992,161.828216 C157.182992,161.828216 150.328822,170.529163 143.649698,165.896029 C136.971403,161.263727 138.236546,152.334989 138.236546,152.334989" id="Fill-193" fill="#FFC6A0"></path>
                            <path d="M211.230138,72.2398891 C203.583698,76.9835928 194.602429,77.6520011 194.602429,77.6520011 C194.602429,77.6520011 198.699003,71.905685 198.334808,68.6218383 C198.134044,66.8128128 196.695515,68.1654251 194.693686,71.4492719 C193.109976,74.0464205 189.827242,76.2137593 186.227599,78.0169653 C178.217794,82.0307405 177.398977,91.2438011 177.398977,91.2438011 C177.033952,96.9601884 182.605558,99.7510425 186.774307,97.1730149 C191.689698,94.1319235 206.037661,89.8837066 211.169577,86.3479597 C215.052943,83.6726638 215.568126,82.3873912 212.74748,83.3076996 C211.4981,83.7150629 210.466075,84.5090056 209.227479,84.949623 C207.667828,85.5049672 205.962167,85.7327581 204.37265,85.800929 C208.711467,83.489766 212.07965,80.6922612 213.900626,77.5306234 C214.748479,76.0566335 215.052943,74.3681543 214.021748,74.4903633 C214.021748,74.4903633 215.052943,72.0578227 212.686919,72.6655422 C212.200772,72.1185115 211.230138,72.2398891 211.230138,72.2398891" id="Fill-195" fill="#FFC6A0"></path>
                            <path d="M184.94545,87.9795743 C184.519035,87.9795743 184.073538,87.9288617 183.605643,87.819123 C183.431427,87.7783867 183.323578,87.6038025 183.364229,87.4300496 C183.405709,87.2554653 183.574948,87.146558 183.753312,87.1881257 C189.197159,88.4700729 191.538295,80.5622375 191.561524,80.4815962 C191.574798,80.4358717 191.598027,80.3934727 191.629551,80.3568931 L194.268515,77.3465617 C194.387148,77.2127138 194.592889,77.1994122 194.724796,77.3174644 C194.859191,77.4355166 194.872465,77.6400296 194.754661,77.7747089 L192.161326,80.732665 C191.923231,81.4950162 189.758799,87.9787429 184.94545,87.9795743" id="Fill-197" fill="#E59788"></path>
                            <path d="M201.885006,83.2668801 C201.741485,83.2668801 201.610408,83.1704431 201.572246,83.0241249 C201.526618,82.8512033 201.630318,82.674125 201.802875,82.6292319 C203.289522,82.2409898 208.410654,80.6339833 211.919039,76.2635574 C213.27295,74.5775723 213.779836,74.2533444 213.867774,74.2051259 C214.023739,74.1211592 214.220355,74.1776912 214.306633,74.3356484 C214.389594,74.4902802 214.33484,74.6839856 214.183023,74.7712777 C214.152328,74.7895675 213.687751,75.0938429 212.422608,76.669258 C208.790611,81.1943156 203.50107,82.8553601 201.967136,83.2560725 C201.93893,83.2635547 201.911553,83.2668801 201.885006,83.2668801" id="Fill-199" fill="#E59788"></path>
                            <path d="M200.246045,80.3479976 C200.098375,80.3479976 199.965639,80.2465725 199.930796,80.0977602 C199.890145,79.923176 199.998823,79.7494231 200.17221,79.7086867 C200.226964,79.6953851 205.592828,78.42092 208.322218,76.1272154 C209.997184,74.7189024 211.928497,72.8749601 211.947578,72.8566704 C212.076996,72.73363 212.281078,72.7377868 212.404688,72.867478 C212.528299,72.9971691 212.523321,73.2025135 212.393904,73.3255538 C212.373993,73.3438436 210.427747,75.2019189 208.737019,76.6235335 C205.889826,79.0170005 200.545531,80.2864775 200.319879,80.3396841 C200.294991,80.3455036 200.270103,80.3479976 200.246045,80.3479976" id="Fill-201" fill="#E59788"></path>
                            <path d="M202.886335,85.8209647 C202.761065,85.8209647 202.641603,85.7469742 202.589338,85.6239339 C202.565279,85.5690645 200.227461,80.1270239 197.610068,78.3778559 C197.46074,78.2780935 197.420919,78.0777372 197.519641,77.9289249 C197.619193,77.7801127 197.819957,77.738545 197.967626,77.8383074 C200.746792,79.6955513 203.08544,85.1392547 203.183333,85.3695397 C203.253849,85.5341477 203.177525,85.7245277 203.013264,85.7951927 C202.971784,85.8126511 202.928645,85.8209647 202.886335,85.8209647" id="Fill-203" fill="#E59788"></path>
                            <path d="M187.684546,89.104562 C187.601586,89.104562 187.519455,89.0729705 187.456406,89.0097877 C187.329477,88.8834219 187.329477,88.6780776 187.456406,88.5517118 C189.517136,86.4866295 195.937425,85.8398364 196.209534,85.8132331 C196.419423,85.7941119 196.546352,85.9271285 196.562944,86.1042068 C196.581196,86.2821165 196.450119,86.4400737 196.273413,86.4575321 C196.207875,86.4641829 189.810815,87.108482 187.912687,89.0097877 C187.849637,89.0729705 187.767506,89.104562 187.684546,89.104562" id="Fill-205" fill="#E59788"></path>
                        </g>
                    </g>
                </g>
                <g id="编组" mask="url(#mask-2)">
                    <g transform="translate(12.000000, 190.000000)">
                        <g id="编组" stroke-width="1" fill="none" transform="translate(24.674432, 14.906051)">
                            <mask id="mask-8" fill="white">
                                <use xlink:href="#path-7"></use>
                            </mask>
                            <g id="Clip-2"></g>
                            <path d="M7.4900088,4.12527958 C7.27923672,6.16106638 5.44326614,7.64241495 3.38923263,7.43351524 C1.33453631,7.22461553 -0.160089565,5.40495453 0.0513453145,3.36851082 C0.262117389,1.33272402 2.09808797,-0.14862456 4.15212149,0.0609320682 C6.206155,0.269831779 7.70078087,2.08949278 7.4900088,4.12527958" id="Fill-1" fill="#E4E6EF" mask="url(#mask-8)"></path>
                        </g>
                        <path d="M56.1828971,5.46181665 C55.9704214,7.50887692 54.119611,8.99842868 52.0489752,8.78837215 C49.9776711,8.57831563 48.4709645,6.74791744 48.6834402,4.70085717 C48.896584,2.65379691 50.7473944,1.16424515 52.8180303,1.37496223 C54.8886662,1.5843582 56.3953728,3.41475639 56.1828971,5.46181665" id="Fill-3" fill="#E4E6EF"></path>
                        <path d="M7.51936086,4.10695435 C7.30708136,6.15422231 5.45563495,7.64314446 3.38452541,7.43330862 C1.31403116,7.22286456 -0.192845626,5.3933393 0.020049176,3.34607134 C0.232328675,1.29880338 2.08377509,-0.190118776 4.15426933,0.0197170663 C6.22537887,0.229552909 7.73225566,2.05968639 7.51936086,4.10695435" id="Fill-5" fill="#E4E6EF"></path>
                        <g id="编组" stroke-width="1" fill="none" transform="translate(69.225491, 9.485669)">
                            <mask id="mask-10" fill="white">
                                <use xlink:href="#path-9"></use>
                            </mask>
                            <g id="Clip-8"></g>
                            <path d="M8.15768034,4.47004246 C7.92725244,6.6667657 5.92399489,8.26438259 3.68231771,8.03922825 C1.44064054,7.81342129 -0.18967013,5.85033647 0.0400917902,3.65361323 C0.270519687,1.45689 2.27377724,-0.140726903 4.51545442,0.0844274399 C6.75646561,0.310234404 8.38744226,2.27331922 8.15768034,4.47004246" id="Fill-7" fill="#E4E6EF" mask="url(#mask-10)"></path>
                        </g>
                        <polygon id="Fill-9" fill="#E4E6EF" points="28.4957979 18.9713381 28.4038808 18.9141832 4.11240539 3.69701043 4.30574829 3.38773895 28.5059405 18.5483919 53.0173831 4.80772052 53.0978898 4.83947324 74.023297 13.0653325 73.8901757 13.4038165 53.0446413 5.20970993"></polygon>
                    </g>
                </g>
                <g id="编组" mask="url(#mask-2)">
                    <g transform="translate(48.000000, 70.000000)">
                        <polygon id="Fill-1" fill="#CED0DB" points="21.8576861 0.241393545 13.2771945 27.2774705 18.4648293 27.2774705 27.046137 0.241393545"></polygon>
                        <g id="编组" stroke-width="1" fill="none" transform="translate(0.000000, 3.138116)">
                            <g>
                                <mask id="mask-12" fill="white">
                                    <use xlink:href="#path-11"></use>
                                </mask>
                                <g id="Clip-3"></g>
                                <path d="M9.62456077,0.274442515 L4.0265901,0.274442515 L0.498408532,0.274442515 C0.222989703,0.274442515 -0.000165914957,0.497451137 -0.000165914957,0.772688544 L-0.000165914957,4.29854605 L-0.000165914957,17.404655 L-0.000165914957,20.9305125 C-0.000165914957,21.2057499 0.222989703,21.4287585 0.498408532,21.4287585 L4.0265901,21.4287585 L9.62456077,21.4287585 C9.8999796,21.4287585 10.1231352,21.2057499 10.1231352,20.9305125 L10.1231352,17.902901 C10.1231352,17.6276636 9.8999796,17.404655 9.62456077,17.404655 L4.0265901,17.404655 L4.0265901,4.29854605 L9.62456077,4.29854605 C9.8999796,4.29854605 10.1231352,4.07553743 10.1231352,3.80112905 L10.1231352,0.772688544 C10.1231352,0.497451137 9.8999796,0.274442515 9.62456077,0.274442515" id="Fill-2" fill="#E4E6EF" mask="url(#mask-12)"></path>
                            </g>
                            <g transform="translate(30.528352, 0.000000)">
                                <mask id="mask-14" fill="white">
                                    <use xlink:href="#path-13"></use>
                                </mask>
                                <g id="Clip-5"></g>
                                <path d="M9.64671041,0.274442515 L6.11852884,0.274442515 L0.520558179,0.274442515 C0.24513935,0.274442515 0.0219837319,0.497451137 0.0219837319,0.772688544 L0.0219837319,3.80112905 C0.0219837319,4.07553743 0.24513935,4.29854605 0.520558179,4.29854605 L6.11852884,4.29854605 L6.11852884,17.404655 L0.520558179,17.404655 C0.24513935,17.404655 0.0219837319,17.6276636 0.0219837319,17.902901 L0.0219837319,20.9305125 C0.0219837319,21.2057499 0.24513935,21.4287585 0.520558179,21.4287585 L6.11852884,21.4287585 L9.64671041,21.4287585 C9.92212924,21.4287585 10.1452849,21.2057499 10.1452849,20.9305125 L10.1452849,17.902901 L10.1452849,3.80112905 L10.1452849,0.772688544 C10.1452849,0.497451137 9.92212924,0.274442515 9.64671041,0.274442515" id="Fill-4" fill="#E4E6EF" mask="url(#mask-14)"></path>
                            </g>
                        </g>
                    </g>
                </g>
                <g id="分组" mask="url(#mask-2)">
                    <g transform="translate(251.000000, 23.000000)">
                        <path d="M33.2740573,83.8112342 L32.2085221,83.8112342 C30.7437131,83.8112342 29.5446839,82.6385192 29.5446839,81.2045441 L29.5446839,60.3522055 C29.5446839,58.9182304 30.7437131,57.7455153 32.2085221,57.7455153 L33.2740573,57.7455153 C34.7388663,57.7455153 35.9378956,58.9182304 35.9378956,60.3522055 L35.9378956,81.2045441 C35.9378956,82.6385192 34.7388663,83.8112342 33.2740573,83.8112342" id="Fill-1" stroke="none" fill="#393D65" fill-rule="evenodd"></path>
                        <path d="M64.9309656,84.5899312 L64.9309656,84.5899312 C64.9309656,86.3176761 63.4999831,87.7179593 61.7343597,87.7179593 L4.19847479,87.7179593 C2.43285142,87.7179593 1.00186894,86.3176761 1.00186894,84.5899312 C1.00186894,82.8627773 2.43285142,81.4619031 4.19847479,81.4619031 L61.7343597,81.4619031 C63.4999831,81.4619031 64.9309656,82.8627773 64.9309656,84.5899312" id="Fill-3" stroke="none" fill="#393D65" fill-rule="evenodd"></path>
                        <g id="分组" stroke="none" stroke-width="1" fill="none" fill-rule="evenodd" transform="translate(22.042247, 79.234513)">
                            <mask id="mask-16" fill="white">
                                <use xlink:href="#path-15"></use>
                            </mask>
                            <g id="Clip-6"></g>
                            <path d="M19.7884088,10.6396697 L1.60967622,10.6396697 C0.730790831,10.6396697 0.0119773483,9.93568602 0.0119773483,9.07565561 L0.0119773483,1.63506262 C0.0119773483,0.775032215 0.730790831,0.0716396465 1.60967622,0.0716396465 L19.7884088,0.0716396465 C20.6672942,0.0716396465 21.3867117,0.775032215 21.3867117,1.63506262 L21.3867117,9.07565561 C21.3867117,9.93568602 20.6672942,10.6396697 19.7884088,10.6396697" id="Fill-5" fill="#ADC6FF" mask="url(#mask-16)"></path>
                        </g>
                        <line x1="24.7085792" y1="80.8471734" x2="24.7085792" y2="88.3332801" id="Stroke-7" stroke="#597EF7" stroke-width="0.726" fill="none" stroke-linecap="round" stroke-linejoin="round"></line>
                        <line x1="40.508462" y1="80.8471734" x2="40.508462" y2="88.3332801" id="Stroke-9" stroke="#597EF7" stroke-width="0.726" fill="none" stroke-linecap="round" stroke-linejoin="round"></line>
                        <mask id="mask-18" fill="white">
                            <use xlink:href="#path-17"></use>
                        </mask>
                        <g id="Clip-12" stroke="none" fill="none"></g>
                        <polygon id="Fill-11" stroke="none" fill="#393D65" fill-rule="evenodd" mask="url(#mask-18)" points="2.99666697 69.819101 62.9354427 69.819101 62.9354427 1.3057094 2.99666697 1.3057094"></polygon>
                        <path d="M2.72768575,70.4101872 C1.22723811,70.4101872 -0.000181213483,69.2091001 -0.000181213483,67.7414331 L-0.000181213483,51.9641604 C-0.000181213483,50.4964934 1.22723811,49.2954063 2.72768575,49.2954063 L63.2052696,49.2954063 C64.7051132,49.2954063 65.9331365,50.4964934 65.9331365,51.9641604 L65.9331365,67.7414331 C65.9331365,69.2091001 64.7051132,70.4101872 63.2052696,70.4101872 L2.72768575,70.4101872 Z" id="Fill-13" stroke="none" fill="#ADC6FF" fill-rule="evenodd" mask="url(#mask-18)"></path>
                        <path d="M2.72768575,21.1151356 C1.22723811,21.1151356 -0.000181213483,19.9140485 -0.000181213483,18.4457904 L-0.000181213483,2.66910881 C-0.000181213483,1.20144179 1.22723811,-0.000236434477 2.72768575,-0.000236434477 L63.2052696,-0.000236434477 C64.7051132,-0.000236434477 65.9331365,1.20144179 65.9331365,2.66910881 L65.9331365,18.4457904 C65.9331365,19.9140485 64.7051132,21.1151356 63.2052696,21.1151356 L2.72768575,21.1151356 Z" id="Fill-14" stroke="none" fill="#ADC6FF" fill-rule="evenodd" mask="url(#mask-18)"></path>
                        <path d="M7.64225582,12.5593994 L7.64225582,12.5593994 C6.51269178,12.5593994 5.59695964,11.6627217 5.59695964,10.5573905 C5.59695964,9.4520593 6.51269178,8.55597263 7.64225582,8.55597263 C8.77242391,8.55597263 9.68815604,9.4520593 9.68815604,10.5573905 C9.68815604,11.6627217 8.77242391,12.5593994 7.64225582,12.5593994" id="Fill-15" stroke="none" fill="#FFFFFF" fill-rule="evenodd" mask="url(#mask-18)"></path>
                        <path d="M11.9016787,10.5573905 C11.9016787,9.4520593 12.8174109,8.55597263 13.947579,8.55597263 C15.077143,8.55597263 15.9934792,9.4520593 15.9934792,10.5573905 C15.9934792,11.6627217 15.077143,12.5593994 13.947579,12.5593994 C12.8174109,12.5593994 11.9016787,11.6627217 11.9016787,10.5573905 Z" id="Fill-16" stroke="none" fill="#FFFFFF" fill-rule="evenodd" mask="url(#mask-18)"></path>
                        <path d="M20.2529021,12.5593994 L20.2529021,12.5593994 C19.122734,12.5593994 18.2070019,11.6627217 18.2070019,10.5573905 C18.2070019,9.4520593 19.122734,8.55597263 20.2529021,8.55597263 C21.3824662,8.55597263 22.2981983,9.4520593 22.2981983,10.5573905 C22.2981983,11.6627217 21.3824662,12.5593994 20.2529021,12.5593994" id="Fill-17" stroke="none" fill="#FFFFFF" fill-rule="evenodd" mask="url(#mask-18)"></path>
                        <path d="M41.9640291,12.5593994 C41.6523419,12.5593994 41.3998511,12.3123254 41.3998511,12.0073249 L41.3998511,9.10804713 C41.3998511,8.80304666 41.6523419,8.55597263 41.9640291,8.55597263 L61.2922592,8.55597263 C61.6039464,8.55597263 61.8564372,8.80304666 61.8564372,9.10804713 L61.8564372,12.0073249 C61.8564372,12.3123254 61.6039464,12.5593994 61.2922592,12.5593994 L41.9640291,12.5593994 Z" id="Fill-18" stroke="none" fill="#597EF7" fill-rule="evenodd" mask="url(#mask-18)"></path>
                        <path d="M2.72768575,45.7626614 C1.22723811,45.7626614 -0.000181213483,44.5615743 -0.000181213483,43.0933162 L-0.000181213483,27.3166346 C-0.000181213483,25.8489676 1.22723811,24.6472894 2.72768575,24.6472894 L63.2052696,24.6472894 C64.7051132,24.6472894 65.9331365,25.8489676 65.9331365,27.3166346 L65.9331365,43.0933162 C65.9331365,44.5615743 64.7051132,45.7626614 63.2052696,45.7626614 L2.72768575,45.7626614 Z" id="Fill-19" stroke="none" fill="#ADC6FF" fill-rule="evenodd" mask="url(#mask-18)"></path>
                        <path d="M7.64225582,37.9221395 L7.64225582,37.9221395 C6.51269178,37.9221395 5.59695964,37.0260528 5.59695964,35.9201306 C5.59695964,34.8147994 6.51269178,33.9187127 7.64225582,33.9187127 C8.77242391,33.9187127 9.68815604,34.8147994 9.68815604,35.9201306 C9.68815604,37.0260528 8.77242391,37.9221395 7.64225582,37.9221395" id="Fill-20" stroke="none" fill="#FF7A45" fill-rule="evenodd" mask="url(#mask-18)"></path>
                        <path d="M13.947579,37.9221395 L13.947579,37.9221395 C12.8174109,37.9221395 11.9016787,37.0260528 11.9016787,35.9201306 C11.9016787,34.8147994 12.8174109,33.9187127 13.947579,33.9187127 C15.077143,33.9187127 15.9934792,34.8147994 15.9934792,35.9201306 C15.9934792,37.0260528 15.077143,37.9221395 13.947579,37.9221395" id="Fill-21" stroke="none" fill="#393D65" fill-rule="evenodd" mask="url(#mask-18)"></path>
                        <path d="M20.2529021,37.9221395 L20.2529021,37.9221395 C19.122734,37.9221395 18.2070019,37.0260528 18.2070019,35.9201306 C18.2070019,34.8147994 19.122734,33.9187127 20.2529021,33.9187127 C21.3824662,33.9187127 22.2981983,34.8147994 22.2981983,35.9201306 C22.2981983,37.0260528 21.3824662,37.9221395 20.2529021,37.9221395" id="Fill-22" stroke="none" fill="#393D65" fill-rule="evenodd" mask="url(#mask-18)"></path>
                        <path d="M61.1745913,37.9221395 L42.0819387,37.9221395 C41.7050147,37.9221395 41.399972,37.623641 41.399972,37.2548032 L41.399972,34.5854579 C41.399972,34.2172113 41.7050147,33.9187127 42.0819387,33.9187127 L61.1745913,33.9187127 C61.5515153,33.9187127 61.856558,34.2172113 61.856558,34.5854579 L61.856558,37.2548032 C61.856558,37.623641 61.5515153,37.9221395 61.1745913,37.9221395" id="Fill-23" stroke="none" fill="#FF7A45" fill-rule="evenodd" mask="url(#mask-18)"></path>
                        <path d="M5.59695964,60.0002136 C5.59695964,58.8948824 6.51269178,57.9987958 7.64225582,57.9987958 C8.77242391,57.9987958 9.68815604,58.8948824 9.68815604,60.0002136 C9.68815604,61.1055448 8.77242391,62.0022226 7.64225582,62.0022226 C6.51269178,62.0022226 5.59695964,61.1055448 5.59695964,60.0002136 Z" id="Fill-24" stroke="none" fill="#FFFFFF" fill-rule="evenodd" mask="url(#mask-18)"></path>
                        <path d="M13.947579,62.0022226 L13.947579,62.0022226 C12.8174109,62.0022226 11.9016787,61.1055448 11.9016787,60.0002136 C11.9016787,58.8948824 12.8174109,57.9987958 13.947579,57.9987958 C15.077143,57.9987958 15.9934792,58.8948824 15.9934792,60.0002136 C15.9934792,61.1055448 15.077143,62.0022226 13.947579,62.0022226" id="Fill-25" stroke="none" fill="#FFFFFF" fill-rule="evenodd" mask="url(#mask-18)"></path>
                        <path d="M20.2529021,62.0022226 L20.2529021,62.0022226 C19.122734,62.0022226 18.2070019,61.1055448 18.2070019,60.0002136 C18.2070019,58.8948824 19.122734,57.9987958 20.2529021,57.9987958 C21.3824662,57.9987958 22.2981983,58.8948824 22.2981983,60.0002136 C22.2981983,61.1055448 21.3824662,62.0022226 20.2529021,62.0022226" id="Fill-26" stroke="none" fill="#FFFFFF" fill-rule="evenodd" mask="url(#mask-18)"></path>
                        <path d="M61.1745913,62.0022226 L42.0819387,62.0022226 C41.7050147,62.0022226 41.399972,61.7031329 41.399972,61.3348862 L41.399972,58.665541 C41.399972,58.2972943 41.7050147,57.9987958 42.0819387,57.9987958 L61.1745913,57.9987958 C61.5515153,57.9987958 61.856558,58.2972943 61.856558,58.665541 L61.856558,61.3348862 C61.856558,61.7031329 61.5515153,62.0022226 61.1745913,62.0022226" id="Fill-27" stroke="none" fill="#597EF7" fill-rule="evenodd" mask="url(#mask-18)"></path>
                    </g>
                </g>
                <g id="分组" mask="url(#mask-2)">
                    <g transform="translate(298.000007, 0.000000)">
                        <g id="分组" stroke-width="1" fill="none">
                            <mask id="mask-20" fill="white">
                                <use xlink:href="#path-19"></use>
                            </mask>
                            <g id="Clip-2"></g>
                            <path d="M30,-6.69642861e-06 C13.4314286,-6.69642861e-06 0,13.4314219 0,29.9999933 C0,46.5684978 13.4314286,59.9999933 30,59.9999933 C46.5685714,59.9999933 60,46.5684978 60,29.9999933 C60,13.4314219 46.5685714,-6.69642861e-06 30,-6.69642861e-06" id="Fill-1" fill="#FF4D4F" mask="url(#mask-20)"></path>
                        </g>
                        <path d="M31.2251049,38.5714219 L30.1536763,38.5714219 C29.2660647,38.5714219 28.5465335,37.8518906 28.5465335,36.964279 L28.5465335,16.6071362 C28.5465335,15.7195246 29.2660647,14.9999933 30.1536763,14.9999933 L31.2251049,14.9999933 C32.1127165,14.9999933 32.8322478,15.7195246 32.8322478,16.6071362 L32.8322478,36.964279 C32.8322478,37.8518906 32.1127165,38.5714219 31.2251049,38.5714219" id="Fill-3" fill="#FFFFFF"></path>
                        <path d="M31.2251049,45.1595558 L30.1536763,45.1595558 C29.2660647,45.1595558 28.5465335,44.4400246 28.5465335,43.5524129 L28.5465335,42.4809844 C28.5465335,41.5933728 29.2660647,40.8738415 30.1536763,40.8738415 L31.2251049,40.8738415 C32.1127165,40.8738415 32.8322478,41.5933728 32.8322478,42.4809844 L32.8322478,43.5524129 C32.8322478,44.4400246 32.1127165,45.1595558 31.2251049,45.1595558" id="Fill-5" fill="#FFFFFF"></path>
                    </g>
                </g>
                <g id="编组-4" mask="url(#mask-2)">
                    <g transform="translate(305.000000, 184.000000)">
                        <path d="M28.0840549,48.0397339 L15.9505134,48.0397339 L15.9505134,6.05142419 C15.9505134,2.70934032 18.6524716,4.61852778e-13 21.9855662,4.61852778e-13 L22.0489074,4.61852778e-13 C25.382002,4.61852778e-13 28.0840549,2.70934032 28.0840549,6.05142419 L28.0840549,48.0397339 Z" id="Fill-1" fill="#5BA02E"></path>
                        <path d="M34.4429037,58.2475755 L22.2108419,58.2475755 L22.2108419,36.2011291 C22.2108419,32.929341 24.8669195,30.2770609 28.1433919,30.2770609 L28.5104493,30.2770609 C31.7868262,30.2770609 34.4429037,32.929341 34.4429037,36.2011291 L34.4429037,58.2475755 Z" id="Fill-3" fill="#92C110"></path>
                        <path d="M16.2439826,47.8330222 L4.0119208,47.8330222 L4.0119208,24.0006553 C4.0119208,20.7292405 6.65732372,18.0771556 9.92049605,18.0771556 L10.3354073,18.0771556 C13.5985796,18.0771556 16.2439826,20.7292405 16.2439826,24.0006553 L16.2439826,47.8330222 Z" id="Fill-5" fill="#92C110"></path>
                        <path d="M2.37907044,83 C1.06512966,83 0,81.9856243 0,80.7342935 L0,49.2657065 C0,48.0143757 1.06512966,47 2.37907044,47 L35.6209296,47 C36.9348703,47 38,48.0143757 38,49.2657065 L38,80.7342935 C38,81.9856243 36.9348703,83 35.6209296,83 L2.37907044,83 Z" id="Fill-7" fill="#CAD5EE"></path>
                        <path d="M20.1224412,9.15039558 C20.1224412,9.80775093 19.5881573,10.3406302 18.9290693,10.3406302 C18.2699813,10.3406302 17.7356974,9.80775093 17.7356974,9.15039558 C17.7356974,8.49304022 18.2699813,7.96016091 18.9290693,7.96016091 C19.5881573,7.96016091 20.1224412,8.49304022 20.1224412,9.15039558" id="Fill-9" fill="#92C110"></path>
                        <path d="M26.3876435,21.3503009 C26.3876435,22.0076563 25.8533597,22.5405356 25.1942716,22.5405356 C24.5351836,22.5405356 24.0008998,22.0076563 24.0008998,21.3503009 C24.0008998,20.6929455 24.5351836,20.1600662 25.1942716,20.1600662 C25.8533597,20.1600662 26.3876435,20.6929455 26.3876435,21.3503009" id="Fill-11" fill="#92C110"></path>
                        <path d="M7.89037941,27.3014742 C7.89037941,27.9588296 7.35609554,28.4917089 6.69700753,28.4917089 C6.03791952,28.4917089 5.50363565,27.9588296 5.50363565,27.3014742 C5.50363565,26.6441189 6.03791952,26.1112396 6.69700753,26.1112396 C7.35609554,26.1112396 7.89037941,26.6441189 7.89037941,27.3014742" id="Fill-13" fill="#5BA02E"></path>
                        <path d="M13.8572388,39.5013796 C13.8572388,40.1587349 13.3229549,40.6916142 12.6638669,40.6916142 C12.0047789,40.6916142 11.470495,40.1587349 11.470495,39.5013796 C11.470495,38.8440242 12.0047789,38.3111449 12.6638669,38.3111449 C13.3229549,38.3111449 13.8572388,38.8440242 13.8572388,39.5013796" id="Fill-15" fill="#5BA02E"></path>
                    </g>
                </g>
                <g id="编组" opacity="0.567708333" mask="url(#mask-2)">
                    <g transform="translate(360.000000, 158.000000)">
                        <g id="编组" stroke-width="1" fill="none">
                            <mask id="mask-22" fill="white">
                                <use xlink:href="#path-21"></use>
                            </mask>
                            <g id="Clip-2"></g>
                            <path d="M4.54920668,9.22289531 L34.1049548,9.210333 C36.6158694,9.20919101 38.6508516,7.17074877 38.6497108,4.65838297 C38.6485689,2.14601718 36.6124454,0.109858904 34.1015308,0.111000409 L4.54464138,0.123562718 C2.03372673,0.124704702 -0.00125545732,2.16314695 -0.000114612335,4.67551274 C0.00102719236,7.18787853 2.03715071,9.22403681 4.54920668,9.22289531" id="Fill-1" fill="#E4E6EF" mask="url(#mask-22)"></path>
                        </g>
                        <g id="编组" stroke-width="1" fill="none" transform="translate(11.204273, 17.988733)">
                            <mask id="mask-24" fill="white">
                                <use xlink:href="#path-23"></use>
                            </mask>
                            <g id="Clip-4"></g>
                            <path d="M4.57454787,9.09843398 L34.1596681,9.08592315 C36.6730781,9.08478585 38.7100826,7.05469787 38.7089406,4.55262866 C38.7077977,2.05055945 36.6696507,0.0227460837 34.1562407,0.0238829098 L4.57112049,0.036393734 C2.05656806,0.0375310382 0.0195635271,2.06648171 0.0207055058,4.56968822 C0.0218484452,7.07175744 2.0611379,9.0995708 4.57454787,9.09843398" id="Fill-3" fill="#E4E6EF" mask="url(#mask-24)"></path>
                        </g>
                        <path d="M18.3094224,9.2759467 L18.3094224,9.27369078 L33.8826868,9.26692301 C31.3820116,9.26805097 29.357385,11.2814626 29.3585211,13.7629783 C29.3585211,16.244494 31.3865562,18.2556496 33.8860953,18.2545217 L18.3128309,18.2612895 L18.3128309,18.2601615 C20.7953276,18.2376023 22.7995035,16.2343423 22.7983673,13.7652342 C22.7972312,11.297254 20.790783,9.29625001 18.3094224,9.2759467" id="Fill-5" fill="#E4E6EF"></path>
                    </g>
                </g>
                <rect id="矩形" fill="#E5E3EA" mask="url(#mask-2)" x="0" y="267" width="438" height="1"></rect>
            </g>
        </g>
    </g>
</svg>