<?xml version="1.0" encoding="UTF-8"?>
<svg width="35px" height="35px" viewBox="0 0 35 35" version="1.1" xmlns="http://www.w3.org/2000/svg" xmlns:xlink="http://www.w3.org/1999/xlink">
    <title>project_default_icon</title>
    <defs>
        <path d="M0,0 L31,0 C33.209139,0 35,1.790861 35,4 L35,35 L35,35 L0,0 Z" id="path-1"></path>
    </defs>
    <g id="页面-1" stroke="none" stroke-width="1" fill="none" fill-rule="evenodd">
        <g id="project_default_icon">
            <mask id="mask-2" fill="white">
                <use xlink:href="#path-1"></use>
            </mask>
            <use id="Rectangle-Copy-3" fill="#1890FF" fill-rule="nonzero" xlink:href="#path-1"></use>
            <g id="Default" mask="url(#mask-2)" fill="#FFFFFF" fill-rule="nonzero">
                <g transform="translate(23.144439, 12.666645) rotate(-315.000000) translate(-23.144439, -12.666645) translate(10.168439, 9.698645)">
                    <path d="M-3.55271368e-15,0.112 L-3.55271368e-15,5.824 L1.984,5.824 C2.88,5.824 3.568,5.56 4.048,5.04 C4.504,4.544 4.736,3.848 4.736,2.968 C4.736,2.072 4.52,1.376 4.096,0.896 C3.632,0.368 2.952,0.112 2.048,0.112 L-3.55271368e-15,0.112 Z M0.656,0.68 L1.944,0.68 C2.696,0.68 3.24,0.872 3.592,1.264 C3.92,1.632 4.088,2.2 4.088,2.968 C4.088,3.712 3.904,4.28 3.552,4.664 C3.176,5.056 2.616,5.256 1.872,5.256 L0.656,5.256 L0.656,0.68 Z" id="形状"></path>
                    <path d="M7.272,1.576 C6.672,1.576 6.2,1.792 5.848,2.224 C5.496,2.632 5.328,3.144 5.328,3.752 C5.328,4.424 5.504,4.952 5.872,5.352 C6.224,5.736 6.704,5.936 7.296,5.936 C7.832,5.936 8.272,5.776 8.616,5.472 C8.896,5.216 9.08,4.896 9.176,4.496 L8.536,4.496 C8.432,4.784 8.296,5 8.12,5.144 C7.912,5.312 7.632,5.4 7.296,5.4 C6.904,5.4 6.592,5.272 6.368,5.016 C6.144,4.76 6.024,4.4 5.992,3.936 L9.256,3.936 C9.24,3.216 9.08,2.648 8.776,2.248 C8.44,1.8 7.936,1.576 7.272,1.576 Z M7.288,2.112 C8.072,2.112 8.512,2.552 8.592,3.44 L6.008,3.44 C6.048,3.032 6.176,2.712 6.4,2.472 C6.624,2.232 6.92,2.112 7.288,2.112 Z" id="形状"></path>
                    <path d="M11.664,0.112 C11.312,0.112 11.04,0.208 10.856,0.408 C10.68,0.6 10.592,0.864 10.592,1.216 L10.592,1.688 L9.552,1.688 L9.552,2.224 L10.592,2.224 L10.592,5.824 L11.232,5.824 L11.232,2.224 L12.4,2.224 L12.4,1.688 L11.232,1.688 L11.232,1.232 C11.232,1.032 11.272,0.888 11.352,0.8 C11.432,0.704 11.568,0.664 11.744,0.664 L12.456,0.664 L12.456,0.112 L11.664,0.112 Z" id="路径"></path>
                    <path d="M14.792,1.576 C14.296,1.576 13.904,1.672 13.6,1.864 C13.264,2.072 13.048,2.4 12.96,2.832 L13.592,2.88 C13.656,2.616 13.792,2.416 14.008,2.288 C14.2,2.16 14.448,2.104 14.752,2.104 C15.472,2.104 15.832,2.448 15.832,3.144 L15.832,3.36 L14.84,3.376 C14.216,3.384 13.736,3.504 13.4,3.728 C13.016,3.968 12.832,4.32 12.832,4.792 C12.832,5.128 12.96,5.408 13.216,5.624 C13.464,5.832 13.792,5.936 14.208,5.936 C14.592,5.936 14.936,5.848 15.24,5.68 C15.496,5.536 15.712,5.352 15.872,5.128 L15.872,5.824 L16.472,5.824 L16.472,3.168 C16.472,2.688 16.344,2.312 16.104,2.04 C15.816,1.728 15.384,1.576 14.792,1.576 Z M15.832,3.84 L15.832,4.192 C15.832,4.512 15.68,4.8 15.384,5.048 C15.08,5.304 14.736,5.432 14.344,5.432 C14.088,5.432 13.88,5.368 13.72,5.248 C13.56,5.12 13.488,4.968 13.488,4.776 C13.488,4.176 13.952,3.872 14.88,3.856 L15.832,3.84 Z" id="形状"></path>
                    <path d="M17.464,1.688 L17.464,4.248 C17.464,5.368 17.96,5.936 18.968,5.936 C19.528,5.936 19.976,5.68 20.312,5.184 L20.312,5.824 L20.952,5.824 L20.952,1.688 L20.312,1.688 L20.312,4.208 C20.264,4.56 20.128,4.848 19.904,5.072 C19.688,5.28 19.44,5.392 19.168,5.392 C18.792,5.392 18.52,5.288 18.352,5.096 C18.184,4.904 18.104,4.608 18.104,4.216 L18.104,1.688 L17.464,1.688 Z" id="路径"></path>
                    <polygon id="路径" points="22.072 0 22.072 5.824 22.704 5.824 22.704 0"></polygon>
                    <path d="M24.928,0.352 L24.296,0.616 L24.296,1.688 L23.464,1.688 L23.464,2.224 L24.296,2.224 L24.296,4.856 C24.296,5.168 24.36,5.4 24.496,5.56 C24.64,5.736 24.888,5.824 25.224,5.824 L25.848,5.824 L25.848,5.288 L25.32,5.288 C25.176,5.288 25.072,5.248 25.016,5.184 C24.952,5.12 24.928,5.008 24.928,4.856 L24.928,2.224 L25.952,2.224 L25.952,1.688 L24.928,1.688 L24.928,0.352 Z" id="路径"></path>
                </g>
            </g>
        </g>
    </g>
</svg>