<svg t="1666059627077" class="icon" viewBox="0 0 1024 1024" version="1.1" xmlns="http://www.w3.org/2000/svg" p-id="4994" width="200" height="200"><path d="M731.424 517.024c63.904 47.936 100.576 116.096 100.576 186.976s-36.672 139.04-100.576 186.976c-59.36 44.512-137.28 69.024-219.424 69.024s-160.064-24.512-219.424-69.024c-63.936-47.936-100.576-116.096-100.576-186.976l128 0c0 69.376 87.936 128 192 128s192-58.624 192-128c0-69.376-87.936-128-192-128-82.144 0-160.064-24.512-219.424-69.024-63.936-47.936-100.576-116.096-100.576-186.976s36.672-139.04 100.576-186.976c59.36-44.512 137.28-69.024 219.424-69.024s160.064 24.512 219.424 69.024c63.904 47.936 100.576 116.096 100.576 186.976l-128 0c0-69.376-87.936-128-192-128s-192 58.624-192 128c0 69.376 87.936 128 192 128 82.144 0 160.064 24.512 219.424 69.024zM0 512l1024 0 0 64-1024 0z" p-id="4995"></path></svg>