<?xml version="1.0" encoding="UTF-8"?>
<svg width="438px" height="268px" viewBox="0 0 438 268" version="1.1" xmlns="http://www.w3.org/2000/svg" xmlns:xlink="http://www.w3.org/1999/xlink">
    <title>编组 2</title>
    <defs>
        <rect id="path-1" x="0" y="0" width="152.19" height="224.647059"></rect>
        <polygon id="path-3" points="0 0.326304885 12.0247936 0.326304885 12.0247936 25.4782266 0 25.4782266"></polygon>
        <polygon id="path-5" points="0.0261134354 0.326304885 12.0506114 0.326304885 12.0506114 25.4782266 0.0261134354 25.4782266"></polygon>
        <polygon id="path-7" points="0.0381469045 0.0497089465 9.12021696 0.0497089465 9.12021696 8.99778024 0.0381469045 8.99778024"></polygon>
        <polygon id="path-9" points="0 0 9.9102463 0 9.9102463 9.65463892 0 9.65463892"></polygon>
        <polygon id="path-11" points="0 0 30.2905998 0 30.2905998 20.16562 0 20.16562"></polygon>
    </defs>
    <g id="异常状态页面" stroke="none" stroke-width="1" fill="none" fill-rule="evenodd">
        <g id="无权限" transform="translate(-333.000000, -232.000000)">
            <g id="编组-2" transform="translate(333.000000, 232.000000)">
                <g id="image_1">
                    <g id="Group" transform="translate(156.095000, 155.676471) scale(-1, 1) translate(-156.095000, -155.676471) translate(80.000000, 43.352941)">
                        <mask id="mask-2" fill="white">
                            <use xlink:href="#path-1"></use>
                        </mask>
                        <g id="Rectangle"></g>
                        <g id="分组" mask="url(#mask-2)">
                            <g transform="translate(17.100295, 13.478995)">
                                <path d="M71.5260451,85.3766972 C57.1638133,109.653553 38.2245724,100.250244 32.4421598,94.511078 C25.8927665,88.0119869 18.2768554,89.3372718 15.4182976,81.082 C12.1472286,71.6369259 19.2179615,65.0461548 17.4922549,60.8411002 C12.0777857,44.5027112 24.4717793,49.7366187 21.9687274,39.5907022 C17.7866096,22.63602 20.4834796,22.8071559 27.1334096,10.1573576 C35.065441,-4.93112791 44.896268,1.2562513 44.896268,1.2562513 C44.896268,1.2562513 57.7121009,-2.6207927 64.6180366,14.2004442 C65.8669713,17.2421818 70.2708916,18.838432 70.8596011,26.6566959 C72.3624687,46.5807905 83.4370481,47.4894408 86.4676583,60.9582469 C89.6309355,75.0188981 76.2647421,77.0419694 71.5260451,85.3766972" id="Fill-1" stroke="none" fill="#253368" fill-rule="evenodd"></path>
                                <path d="M62.7384156,29.921114 C63.2234791,24.9428917 59.5430082,25.7130035 59.5430082,25.7130035 C59.5430082,25.7130035 58.0701979,30.9489483 58.1976826,35.1051069 C63.4463181,34.8371977 62.7384156,29.921114 62.7384156,29.921114" id="Fill-3" stroke="none" fill="#F4B784" fill-rule="evenodd"></path>
                                <path d="M26.7841224,32.1066626 C25.6792556,27.2241949 30.4625204,27.4798802 30.4625204,27.4798802 C30.4625204,27.4798802 32.580009,32.4988491 32.9749004,36.6376904 C27.7324837,37.0074663 26.7841224,32.1066626 26.7841224,32.1066626" id="Fill-5" stroke="none" fill="#F4B784" fill-rule="evenodd"></path>
                                <path d="M46.8418078,65.3784438 L46.8418078,65.3784438 C42.2316319,65.658577 38.3096658,62.1146369 37.1716322,57.6396357 L36.7736314,40.1277431 L52.6325121,39.1640847 L54.4338803,56.5904094 C54.9002874,61.1061572 51.4519837,65.0983105 46.8418078,65.3784438" id="Fill-7" stroke="none" fill="#F4B784" fill-rule="evenodd"></path>
                                <line x1="45.1438784" y1="41.1468168" x2="46.5182249" y2="40.9726249" id="Stroke-9" stroke="#DD936F" stroke-width="0.596911534" fill="none" stroke-linecap="round" stroke-linejoin="round"></line>
                                <path d="M59.3258697,29.1302215 C58.7516707,40.228591 54.0616873,47.4101886 46.179406,47.8899804 C38.2971246,48.3687536 32.266998,40.6574495 30.7817502,30.8650102 C28.2973546,14.4930052 35.8479687,9.43634557 43.73025,8.95655373 C51.6125314,8.47778056 60.2037517,12.1745206 59.3258697,29.1302215" id="Fill-11" stroke="none" fill="#FFC999" fill-rule="evenodd"></path>
                                <path d="M60.2601351,16.1900014 C58.0928964,9.63793963 54.3709671,3.13782986 44.5764163,5.45733306 C32.2373552,-0.114771695 15.4850457,27.5898962 26.7016202,28.0625573 C37.25486,28.5077145 35.5343357,20.5172959 37.4186207,15.0878044 C39.1515825,10.0973581 43.2466376,15.308855 43.2466376,15.308855 C43.2466376,15.308855 45.174454,12.8925785 47.5593493,13.6097196 C51.5549042,14.8107272 47.8049905,22.6941858 58.0079067,26.8635871 C59.2495862,27.3719016 58.62771,34.0655579 59.0112004,33.5073288 C60.7970216,30.908711 62.4263374,22.7400258 60.2601351,16.1900014" id="Fill-13" stroke="none" fill="#253368" fill-rule="evenodd"></path>
                                <line x1="33.3272969" y1="21.8503227" x2="40.393884" y2="22.6357144" id="Stroke-15" stroke="#253368" stroke-width="0.778241895" fill="none" stroke-linecap="round" stroke-linejoin="round"></line>
                                <line x1="46.9323944" y1="22.238842" x2="55.2935205" y2="20.8982771" id="Stroke-17" stroke="#253368" stroke-width="0.778241895" fill="none" stroke-linecap="round" stroke-linejoin="round"></line>
                                <polyline id="Stroke-19" stroke="#DD936F" stroke-width="0.596911534" fill="none" stroke-linecap="round" stroke-linejoin="round" points="41.4206017 23.4654181 42.6405156 25.819556 42.7794013 34.2072544 45.1052184 35.0232061"></polyline>
                                <path d="M35.2392555,28.9989154 C35.1542657,27.6552945 35.9989809,26.5103136 37.1245769,26.4420629 C38.2512094,26.3727936 39.2327374,27.4077586 39.3166907,28.7513795" id="Stroke-21" stroke="#253368" stroke-width="0.778241895" fill="none" stroke-linecap="round" stroke-linejoin="round"></path>
                                <path d="M49.2198626,28.1493477 C49.1348728,26.8057268 49.979588,25.6607459 51.105184,25.5924952 C52.2318165,25.5232259 53.2133445,26.5581909 53.2983342,27.9007931" id="Stroke-23" stroke="#253368" stroke-width="0.778241895" fill="none" stroke-linecap="round" stroke-linejoin="round"></path>
                                <path d="M48.7051563,37.0079756 C45.2589255,37.2178209 41.5090117,37.2534742 41.5090117,37.2534742 C41.5090117,37.2534742 42.2148413,39.9559959 45.2723995,39.76958 C48.6222395,39.5658467 48.7051563,37.0079756 48.7051563,37.0079756 Z" id="Stroke-25" stroke="#B53026" stroke-width="0.778241895" fill="none" stroke-linecap="round" stroke-linejoin="round"></path>
                                <line x1="44.5624241" y1="42.4141396" x2="46.6011417" y2="42.2898623" id="Stroke-27" stroke="#DD936F" stroke-width="0.596911534" fill="none" stroke-linecap="round" stroke-linejoin="round"></line>
                                <path d="M60.6416562,33.5530669 C60.5338643,33.278027 60.1296448,33.3106243 60.0695301,33.5999256 C59.5367894,36.150666 58.3521152,43.004253 61.0303289,43.001198 C64.0505745,42.9971223 61.6211113,36.0650981 60.6416562,33.5530669" id="Fill-29" stroke="none" fill="#FFFFFF" fill-rule="evenodd"></path>
                                <path d="M30.4132885,35.3904354 C30.3054966,35.1153954 29.9012771,35.1479928 29.8411624,35.437294 C29.3084217,37.9880345 28.1237475,44.8416215 30.8019612,44.8385665 C33.8222068,44.8344908 31.3927436,37.9024665 30.4132885,35.3904354" id="Fill-31" stroke="none" fill="#FFFFFF" fill-rule="evenodd"></path>
                                <path d="M9.716418,131.517086 L9.716418,131.517086 C4.92486155,130.702153 1.68074049,125.974523 2.32334594,120.740615 L6.91071969,77.3749714 C7.76683598,70.4042378 12.1033863,65.1774609 17.7904445,66.4956151 C24.099379,67.5682707 26.4676911,75.2632761 25.0166465,82.0557431 L20.4002518,123.641777 C19.283984,128.864479 14.5680892,132.342206 9.716418,131.517086" id="Fill-33" stroke="none" fill="#FFC999" fill-rule="evenodd"></path>
                                <path d="M23.6564995,100.970034 L4.56386239,96.1232194 L5.98899545,78.0459669 C8.45473475,66.4851228 14.1096627,66.4433575 21.4167086,64.8949847 L29.6607146,64.1910863 C36.5334836,65.2321633 31.5688382,73.741083 30.3883098,80.4744674 L23.6564995,100.970034 Z" id="Fill-35" stroke="none" fill="#597EF7" fill-rule="evenodd"></path>
                                <polyline id="Stroke-37" stroke="#1D39C4" stroke-width="0.583681421" fill="none" stroke-linecap="round" stroke-linejoin="round" points="4.75882059 96.5059323 23.6566031 100.969728 24.3800525 98.5177983"></polyline>
                                <path d="M116.430381,48.1297745 C113.680652,43.9736159 107.846416,44.537957 103.201001,47.1742655 L65.2634404,65.3391232 C59.0757718,68.8494474 56.9385905,76.9132099 60.602478,82.4496614 C64.2228342,87.9219368 72.4274548,87.1385824 78.2015757,83.1433731 L111.761127,63.2355773 C122.461544,54.8224122 116.430381,48.1297745 116.430381,48.1297745" id="Fill-39" stroke="none" fill="#FFC999" fill-rule="evenodd"></path>
                                <path d="M89.6797528,76.8110377 L82.7727806,56.7341432 L60.3997464,64.1907807 C53.9809471,66.8179211 49.8972931,80.5403751 53.7778008,85.7875253 L52.175433,85.8537386 C54.9614386,92.1144618 67.6021097,87.6914126 73.9214088,84.842203 L89.6797528,76.8110377 Z" id="Fill-41" stroke="none" fill="#597EF7" fill-rule="evenodd"></path>
                                <path d="M5.92587501,255.783987 C7.00483029,214.700155 9.03421976,164.007245 12.8390659,155.031776 C12.8390659,155.031776 17.50832,149.612471 31.5160824,158.217145 C47.8486254,168.24999 46.3695964,182.883132 46.3695964,182.883132 L46.5737791,257.191783 C46.2400389,262.624331 45.661694,279.496501 24.3168284,279.496501 C3.30570311,279.496501 5.90307288,256.678376 5.92587501,255.783987" id="Fill-49" stroke="none" fill="#CCD7EE" fill-rule="evenodd"></path>
                                <path d="M89.4692477,260.372976 C88.3902924,219.289145 86.3609029,168.596235 82.5560568,159.621784 C82.5560568,159.621784 77.8868026,154.201461 63.8790403,162.806135 C47.5464972,172.83898 49.0265627,187.472121 49.0265627,187.472121 L48.8213435,261.780773 C49.1550838,267.214339 49.7334287,284.085491 71.0782943,284.085491 C92.0894196,284.085491 89.4930863,261.267366 89.4692477,260.372976" id="Fill-57" stroke="none" fill="#CCD7EE" fill-rule="evenodd"></path>
                                <path d="M84.8901656,170.806944 C84.8901656,170.806944 83.6547048,147.287976 67.6351728,135.015084 L24.8231393,134.860247 C24.8231393,134.860247 10.081563,147.77388 10.081563,171.953962 C10.081563,171.953962 17.568953,173.373983 26.2638193,178.933864 C31.9353306,182.560316 38.2753589,187.53752 48.1839204,187.53752 C58.2852635,187.53752 63.585722,183.018716 69.3256397,179.315864 C77.8463807,173.820159 84.8901656,170.806944 84.8901656,170.806944" id="Fill-59" stroke="none" fill="#CCD7EE" fill-rule="evenodd"></path>
                                <polygon id="Fill-61" stroke="none" fill="#CCD7EE" fill-rule="evenodd" points="24.6105613 135.251109 67.7781007 135.015798 65.8751594 128.751 26.7995657 128.795821"></polygon>
                                <line x1="66.4044797" y1="134.913829" x2="25.9265551" y2="134.913829" id="Stroke-63" stroke="#A3B5D6" stroke-width="0.583681421" fill="none" stroke-linecap="round" stroke-linejoin="round"></line>
                                <line x1="46.8220114" y1="128.64516" x2="46.8220114" y2="185.499983" id="Stroke-65" stroke="#A3B5D6" stroke-width="0.583681421" fill="none" stroke-linecap="round" stroke-linejoin="round"></line>
                                <path d="M66.6256604,62.1836006 C63.9992697,62.4708645 59.6088234,63.3448802 56.9948703,61.0365823 C55.4495078,59.6705508 55.5365705,55.3952082 55.5365705,55.3952082 L35.8210207,55.3330696 C35.8210207,55.3330696 35.8759531,60.4019532 34.3305906,61.7679847 C31.7166375,64.0773013 24.8946551,64.0477599 20.7115009,65.4637061 C13.3992728,67.9390653 15.3675111,81.4689913 18.4800017,89.6906472 C19.2003416,91.5914785 17.9586621,95.174128 19.1619926,97.8165484 C20.3715419,100.476286 22.2102227,103.69629 22.9398908,105.417836 C25.3372237,111.071435 24.844905,117.16204 26.3923404,122.292044 C26.3923404,122.292044 23.9276375,126.97689 27.8174734,128.87874 L65.1766887,128.87874 C69.841797,126.785381 66.6018218,122.292044 66.6018218,122.292044 C68.0787778,117.396334 67.1822396,113.449002 69.3702075,106.278609 C69.8086303,104.844327 71.4545294,102.571683 72.8568603,99.5380945 C75.0458647,94.8053707 74.5338532,90.280455 74.3161966,89.117138 C72.1707235,77.6714033 74.0135501,61.3768169 66.6256604,62.1836006" id="Fill-67" stroke="none" fill="#597EF7" fill-rule="evenodd"></path>
                                <line x1="40.0754833" y1="64.0687445" x2="51.7823036" y2="63.444302" id="Stroke-69" stroke="#1D39C4" stroke-width="0.583681421" fill="none" stroke-linecap="round" stroke-linejoin="round"></line>
                                <path d="M21.7875541,78.6007326 C21.7875541,78.6007326 18.0645883,86.3018499 18.8699181,94.8056763 C19.2129865,98.4290724 20.6059892,101.281338 23.0852025,105.241913 C23.0852025,105.241913 25.6421503,119.51954 26.3915112,122.29235 C24.5600857,125.495037 26.4505895,128.67735 27.8166443,128.878027 L65.2991983,128.878027 C65.2991983,128.878027 68.7713407,127.215564 66.6020291,122.29235 C68.6407467,111.871393 69.5300297,105.623913 69.5300297,105.623913 C72.7700049,101.009354 74.1008201,97.4256861 74.3164038,93.5150261 C74.7568995,85.5429435 70.8287146,78.9827324 70.8287146,78.9827324" id="Stroke-71" stroke="#1D39C4" stroke-width="0.583681421" fill="none" stroke-linecap="round" stroke-linejoin="round"></path>
                                <line x1="22.6630522" y1="93.2280678" x2="68.7710297" y2="93.2280678" id="Stroke-73" stroke="#1D39C4" stroke-width="0.583681421" fill="none" stroke-linecap="round" stroke-linejoin="round"></line>
                                <polyline id="Stroke-75" stroke="#1D39C4" stroke-width="0.583681421" fill="none" stroke-linecap="round" stroke-linejoin="round" points="82.7732989 56.7341432 89.3879892 76.8110377 73.9208906 85.1294669"></polyline>
                                <path d="M15.3496839,170.432381 C12.6155014,161.408016 4.17249494,137.716893 2.27784532,124.853175 C2.27784532,124.853175 0.652675411,117.419967 10.8866854,116.104869 C20.8657262,114.823386 21.2461072,128.581494 21.2461072,128.581494 C22.8194541,144.015307 25.3411622,161.092229 26.4750499,169.674493 C26.4750499,169.674493 26.8885976,174.301275 22.1333173,175.968832 C16.4908268,177.947082 15.3496839,170.432381 15.3496839,170.432381" id="Fill-77" stroke="none" fill="#FFC999" fill-rule="evenodd"></path>
                                <path d="M57.8673626,225.498018 L6.60092167,223.211112 C5.24212208,223.151011 4.19115123,222.019273 4.2523024,220.683801 L5.88576399,185.321819 C5.94691516,183.986347 7.09842267,182.952401 8.45722226,183.012502 L59.7236632,185.300427 C61.0824628,185.360528 62.1334337,186.492266 62.0722825,187.827738 L60.4388209,223.18972 C60.3776697,224.525192 59.2261622,225.559138 57.8673626,225.498018" id="Fill-79" stroke="none" fill="#B53026" fill-rule="evenodd"></path>
                                <path d="M56.1218597,225.420498 L4.85645516,223.133592 C3.49765557,223.073491 2.44564826,221.940734 2.50679943,220.606281 L4.14026103,185.244298 C4.20141219,183.908827 5.35395616,182.87488 6.71275575,182.934982 L57.9781603,185.221888 C59.3369599,185.283008 60.3889672,186.413727 60.3267795,187.750217 L58.6933179,223.1122 C58.6321668,224.447671 57.4806593,225.481618 56.1218597,225.420498" id="Fill-81" stroke="none" fill="#FF7A46" fill-rule="evenodd"></path>
                                <path d="M35.4002178,184.223696 C32.2234666,183.995515 29.7100501,184.223696 28.3574693,184.163595 C24.8635613,184.009776 25.8285059,195.527837 25.1278587,197.3431 C24.0613409,200.105723 17.4549423,198.527809 14.9125049,188.150655 C14.190092,185.199579 14.3942747,180.803015 14.3890924,176.623427 C14.3890924,176.623427 15.263865,166.58447 19.3495919,166.010961 C22.8932501,165.512833 25.8824019,169.233003 25.8824019,169.233003 C25.8824019,169.233003 29.6437167,174.402734 31.5694601,179.103879 L35.4002178,184.223696 Z" id="Fill-83" stroke="none" fill="#FFC999" fill-rule="evenodd"></path>
                                <path d="M22.6702038,187.1817 C22.6702038,187.1817 21.8389625,192.00101 22.6546569,197.240011" id="Stroke-85" stroke="#DD936F" stroke-width="0.583681421" fill="none" stroke-linecap="round" stroke-linejoin="round"></path>
                                <path d="M20.0202855,196.434755 C20.0202855,196.434755 18.0012606,192.173674 19.3279299,186.0739" id="Stroke-87" stroke="#DD936F" stroke-width="0.583681421" fill="none" stroke-linecap="round" stroke-linejoin="round"></path>
                                <path d="M16.3396073,184.075888 C16.3396073,184.075888 15.9996483,187.13698 16.7313893,192.176322" id="Stroke-89" stroke="#DD936F" stroke-width="0.583681421" fill="none" stroke-linecap="round" stroke-linejoin="round"></path>
                                <path d="M76.9962759,24.1407939 L67.7158094,17.8158947 C67.7158094,17.8158947 63.4455925,6.83161579 61.2275673,5.09784572 C59.0085056,3.36407565 56.0763591,3.65032088 53.6230573,2.52061994 C51.1697555,1.39193766 51.6776211,4.0791794 54.7372522,5.6428322 C57.7979198,7.20750366 59.0551463,7.05674105 59.7537206,10.1606173 C60.4522949,13.2644936 59.7319549,25.3020735 64.2312295,27.3373688 C65.8232327,28.8236029 66.4772392,28.9346376 67.4577308,29.8015226 C69.596985,31.69013 72.9654814,31.46093 74.7119171,29.2157895 C74.754412,29.1618002 74.7969069,29.1067922 74.8383653,29.0507655 C76.6418064,26.661993 79.6547968,25.562852 76.9962759,24.1407939" id="Fill-91" stroke="none" fill="#FFC999" fill-rule="evenodd"></path>
                                <path d="M53.2974014,2.27827922 C50.8440997,1.14959694 51.3519653,3.83582002 54.4115964,5.40049148 C57.4722639,6.96516295 59.2694863,7.47144011 59.9680606,10.576335 C60.3805718,12.4099344 60.7930831,18.415991 61.0687815,22.335819 C61.2895476,25.4967406 63.2919891,26.7048789 66.2365731,28.8175928" id="Stroke-93" stroke="#DD936F" stroke-width="0.5" fill="none" stroke-linecap="round" stroke-linejoin="round"></path>
                                <path d="M66.8442499,29.2808822 L72.1198333,20.9940317 L113.32639,45.0936395 C117.738602,47.6749399 119.151297,53.5210659 116.427479,57.9288351 C113.702625,62.3366043 107.173961,63.5844705 103.016718,60.5906102 L66.8442499,29.2808822 Z" id="Fill-95" stroke="none" fill="#FFC999" fill-rule="evenodd"></path>
                                <line x1="101.407302" y1="59.4738463" x2="67.9451781" y2="30.311467" id="Stroke-97" stroke="#DD936F" stroke-width="0.583681421" fill="none" stroke-linecap="round" stroke-linejoin="round"></line>
                            </g>
                        </g>
                    </g>
                    <g id="编组" transform="translate(38.000000, 54.191176)">
                        <polygon id="Fill-1" fill="#CED0DB" points="25.9637116 0.287010534 15.7713515 32.4321904 21.9334975 32.4321904 32.1268271 0.287010534"></polygon>
                        <g transform="translate(0.000000, 3.731137)">
                            <g>
                                <mask id="mask-4" fill="white">
                                    <use xlink:href="#path-3"></use>
                                </mask>
                                <g id="Clip-3"></g>
                                <path d="M11.4325606,0.326304885 L4.78299596,0.326304885 L0.592035925,0.326304885 C0.264878923,0.326304885 -0.000197082532,0.591456233 -0.000197082532,0.918706224 L-0.000197082532,5.11085746 L-0.000197082532,20.693674 L-0.000197082532,24.8858253 C-0.000197082532,25.2130753 0.264878923,25.4782266 0.592035925,25.4782266 L4.78299596,25.4782266 L11.4325606,25.4782266 C11.7597176,25.4782266 12.0247936,25.2130753 12.0247936,24.8858253 L12.0247936,21.2860754 C12.0247936,20.9588254 11.7597176,20.693674 11.4325606,20.693674 L4.78299596,20.693674 L4.78299596,5.11085746 L11.4325606,5.11085746 C11.7597176,5.11085746 12.0247936,4.84570611 12.0247936,4.51944182 L12.0247936,0.918706224 C12.0247936,0.591456233 11.7597176,0.326304885 11.4325606,0.326304885" id="Fill-2" fill="#E4E6EF" mask="url(#mask-4)"></path>
                            </g>
                            <g transform="translate(36.263186, 0.000000)">
                                <mask id="mask-6" fill="white">
                                    <use xlink:href="#path-5"></use>
                                </mask>
                                <g id="Clip-5"></g>
                                <path d="M11.4588711,0.326304885 L7.26791106,0.326304885 L0.618346443,0.326304885 C0.29118944,0.326304885 0.0261134354,0.591456233 0.0261134354,0.918706224 L0.0261134354,4.51944182 C0.0261134354,4.84570611 0.29118944,5.11085746 0.618346443,5.11085746 L7.26791106,5.11085746 L7.26791106,20.693674 L0.618346443,20.693674 C0.29118944,20.693674 0.0261134354,20.9588254 0.0261134354,21.2860754 L0.0261134354,24.8858253 C0.0261134354,25.2130753 0.29118944,25.4782266 0.618346443,25.4782266 L7.26791106,25.4782266 L11.4588711,25.4782266 C11.7860281,25.4782266 12.0511041,25.2130753 12.0511041,24.8858253 L12.0511041,21.2860754 L12.0511041,4.51944182 L12.0511041,0.918706224 C12.0511041,0.591456233 11.7860281,0.326304885 11.4588711,0.326304885" id="Fill-4" fill="#E4E6EF" mask="url(#mask-6)"></path>
                            </g>
                        </g>
                    </g>
                    <g id="编组" transform="translate(28.000000, 192.132353)">
                        <g transform="translate(29.965568, 17.995560)">
                            <mask id="mask-8" fill="white">
                                <use xlink:href="#path-7"></use>
                            </mask>
                            <g id="Clip-2"></g>
                            <path d="M9.09615118,4.98030741 C8.84018157,7.43804244 6.61050916,9.22642336 4.11601284,8.97422596 C1.62071158,8.72202856 -0.194418848,6.52521475 0.0623557002,4.06668665 C0.318325313,1.60895163 2.54799773,-0.179429292 5.04249404,0.0735611794 C7.53699036,0.325758578 9.35212079,2.52257239 9.09615118,4.98030741" id="Fill-1" fill="#E4E6EF" mask="url(#mask-8)"></path>
                        </g>
                        <path d="M68.2306443,6.59386242 C67.9726057,9.0652075 65.7249113,10.8634918 63.2102524,10.6098979 C60.6947821,10.3563039 58.8649804,8.14652743 59.1230189,5.67518235 C59.3818689,3.20383726 61.6295634,1.40555292 64.1442222,1.65994436 C66.6588811,1.91274088 68.4886828,4.12251733 68.2306443,6.59386242" id="Fill-3" fill="#E4E6EF"></path>
                        <path d="M9.13179744,4.958184 C8.87399716,7.42977983 6.62553031,9.22730407 4.11029621,8.97397651 C1.59580936,8.71991467 -0.234199053,6.51119207 0.0243484809,4.03959624 C0.282148767,1.56800041 2.53061561,-0.229523826 5.04510247,0.0238037324 C7.56033657,0.277131291 9.39034498,2.48658817 9.13179744,4.958184" id="Fill-5" fill="#E4E6EF"></path>
                        <g transform="translate(84.092535, 11.528105)">
                            <mask id="mask-10" fill="white">
                                <use xlink:href="#path-9"></use>
                            </mask>
                            <g id="Clip-8"></g>
                            <path d="M9.88452687,5.32014285 C9.60468648,7.97217087 7.17185441,9.90091852 4.4494765,9.62909746 C1.72709859,9.35648852 -0.25281261,6.98652409 0.0262189936,4.33449607 C0.306059384,1.68246806 2.73889145,-0.246279594 5.46126936,0.0255414597 C8.18283848,0.2981504 10.1635585,2.66811483 9.88452687,5.32014285" id="Fill-7" fill="#E4E6EF" mask="url(#mask-10)"></path>
                        </g>
                        <polygon id="Fill-9" fill="#E4E6EF" points="34.6063794 22.9034406 34.4947518 22.8344395 4.99426131 4.46327287 5.22906427 4.08990011 34.6186969 22.3928323 64.3863238 5.80419477 64.4840943 5.84252873 89.8967036 15.7733242 89.735036 16.1819642 64.4194272 6.28950269"></polygon>
                    </g>
                    <rect id="矩形" fill="#E5E3EA" x="0" y="267.014706" width="438" height="1"></rect>
                </g>
                <g id="网页" transform="translate(242.000000, 43.000000)">
                    <rect id="矩形" fill="#E2E7F2" fill-rule="nonzero" x="0" y="4.48785152" width="133.03937" height="97.3139933" rx="3.88850619"></rect>
                    <g id="分组-2" transform="translate(38.376741, 22.616693)">
                        <path d="M0.02166763,68.1748982 L0.02166763,1.34637179 C0.02166763,0.611615636 0.617305179,0.0159780877 1.35206133,0.0159780877 L82.3069292,0.0159780877 C83.0416854,0.0159780877 83.6373229,0.611615636 83.6373229,1.34637179 L83.6373229,68.4362256 L83.6373229,68.4362256 C83.6373229,69.0266175 83.1463747,69.5052919 82.5408446,69.5052919 L1.35206133,69.5052919 C0.617305179,69.5052919 0.02166763,68.9096544 0.02166763,68.1748982 Z" id="Fill-30" fill="#FFFFFF"></path>
                        <path d="M8.26947353,52.637202 C7.66380632,52.637202 7.17299521,52.1585275 7.17299521,51.5681356 L7.17299521,8.1466688 C7.17299521,7.55614326 7.66380632,7.07760243 8.26947353,7.07760243 L75.7729281,7.07760243 C76.3784582,7.07760243 76.8694064,7.55614326 76.8694064,8.1466688 L76.8694064,51.5681356 C76.8694064,52.1585275 76.3784582,52.637202 75.7729281,52.637202 L8.26947353,52.637202 Z" id="Fill-32" fill="#CED7EC"></path>
                        <path d="M16.7055448,13.3587549 L11.9198281,13.3587549 C11.5494925,13.3587549 11.2493316,13.066098 11.2493316,12.7050208 C11.2493316,12.3440773 11.5494925,12.0514203 11.9198281,12.0514203 L16.7055448,12.0514203 C17.0758803,12.0514203 17.3760413,12.3440773 17.3760413,12.7050208 C17.3760413,13.066098 17.0758803,13.3587549 16.7055448,13.3587549" id="Fill-34" fill="#B2BED9"></path>
                        <path d="M16.783011,16.495743 L11.9971572,16.495743 C11.6269587,16.495743 11.3267978,16.2030861 11.3267978,15.842009 C11.3267978,15.4810654 11.6269587,15.1884085 11.9971572,15.1884085 L16.783011,15.1884085 C17.1533465,15.1884085 17.4535075,15.4810654 17.4535075,15.842009 C17.4535075,16.2030861 17.1533465,16.495743 16.783011,16.495743" id="Fill-36" fill="#B2BED9"></path>
                        <path d="M7.17313227,40.6055148 C14.4266105,40.6055148 12.5006227,31.6440938 23.4862184,31.6440938 C34.4718141,31.6440938 33.899712,39.6552351 42.4675937,39.6552351 C51.1689885,39.6552351 50.5933678,16.6458088 58.9296184,16.6458088 C67.728994,16.6458088 65.7427555,37.4956185 76.703427,37.4956185 L76.703427,51.6255846 C76.703427,52.2163774 76.2119306,52.6951855 75.6059892,52.6946514 L8.26865117,52.638124 C7.6635322,52.6375895 7.17313227,52.1591823 7.17313227,51.5690577 L7.17313227,40.6055148 Z" id="Fill-38" fill="#393D65"></path>
                        <path d="M6.92571193,44.0678834 C17.8863834,44.0678834 16.3326736,19.5618915 23.396324,19.5618915 C30.1247262,19.5618915 28.1039167,44.0678834 42.0383744,44.0678834 C50.606119,44.0678834 53.3010297,34.0783521 59.3535489,34.0783521 C65.4060681,34.0783521 69.4499213,44.0678834 76.7033996,44.0678834" id="Stroke-40" stroke="#FFFFFF" stroke-width="0.528332598"></path>
                        <line x1="7.90634732" y1="58.9767136" x2="75.5169826" y2="58.9767136" id="Stroke-42" stroke="#E4E6EF" stroke-width="0.997795276" stroke-linecap="round" stroke-linejoin="round"></line>
                        <line x1="7.90634732" y1="63.4918218" x2="64.7115999" y2="63.4918218" id="Stroke-44" stroke="#E4E6EF" stroke-width="0.997795276" stroke-linecap="round" stroke-linejoin="round"></line>
                    </g>
                    <path d="M3.56355456,0 L129.408999,0 C131.377096,0 132.972553,1.55557128 132.972553,3.47446569 L132.972553,13.8283735 L0,13.8283735 L0,3.47446569 C0,1.55557128 1.59545772,0 3.56355456,0 Z" id="路径" fill="#393D65" fill-rule="nonzero"></path>
                    <ellipse id="椭圆形" fill="#FFFFFF" fill-rule="nonzero" cx="7.61709786" cy="6.91418673" rx="2.54348706" ry="2.47989989"></ellipse>
                    <ellipse id="椭圆形" fill="#FFFFFF" fill-rule="nonzero" cx="17.1169404" cy="6.91418673" rx="2.54348706" ry="2.47989989"></ellipse>
                    <ellipse id="椭圆形" fill="#FFFFFF" fill-rule="nonzero" cx="26.6182677" cy="6.91418673" rx="2.54348706" ry="2.47989989"></ellipse>
                    <polygon id="路径" fill="#FFFFFF" fill-rule="nonzero" points="44.1717435 55.8809899 42.5354781 54.6808515 44.1717435 53.4836085 45.808009 54.6808515"></polygon>
                    <rect id="矩形" fill="#B2BED9" fill-rule="nonzero" x="9.46671974" y="49.6645917" width="19.0353206" height="4.6861856" rx="1.04957818"></rect>
                    <rect id="矩形" fill="#B2BED9" fill-rule="nonzero" x="9.46671974" y="58.6866209" width="19.0353206" height="4.54431159" rx="1.03365354"></rect>
                    <rect id="矩形" fill="#B2BED9" fill-rule="nonzero" x="9.46671974" y="67.524793" width="19.0353206" height="4.54431159" rx="1.03365354"></rect>
                    <ellipse id="椭圆形" fill="#FFFFFF" fill-rule="nonzero" cx="18.98438" cy="32.7468391" rx="9.50281215" ry="9.26524184"></ellipse>
                    <path d="M18.98438,42.0120834 C21.723279,42.013567 24.3226001,40.8338438 26.0847625,38.7895141 C24.696288,36.2195142 21.962126,34.6107069 18.9828952,34.6107069 C16.0036645,34.6107069 13.2695024,36.2195142 11.8810279,38.7895141 C13.644113,40.8342952 16.2445332,42.0140239 18.98438,42.0120834 L18.98438,42.0120834 Z" id="路径" fill="#393D65" fill-rule="nonzero"></path>
                    <ellipse id="椭圆形" fill="#393D65" fill-rule="nonzero" cx="19.0348637" cy="31.4945838" rx="3.57394826" ry="3.48459955"></ellipse>
                </g>
                <g id="编组" transform="translate(344.625007, 12.624993)">
                    <g id="Fill-1" fill="#597EF7">
                        <path d="M0,30.375 C0,47.1506108 13.5993214,60.75 30.375,60.75 C47.1506108,60.75 60.75,47.1506108 60.75,30.375 C60.75,13.5993214 47.1506108,0 30.375,0 C13.5993214,0 0,13.5993214 0,30.375 Z"></path>
                    </g>
                    <g id="分组复制" transform="translate(15.271893, 11.820283)">
                        <g id="分组" transform="translate(5.405074, 0.000000)" fill="#FFFFFF">
                            <path d="M3.22421704,9.70036525 C3.22421704,6.12622449 6.12039771,3.22876992 9.69296704,3.22876992 C13.2655364,3.22876992 16.161717,6.12622449 16.161717,9.70036525 L16.161717,12.9431907 L19.396092,12.9431907 L19.396092,9.70233706 C19.396092,4.34385613 15.0540952,0 9.69807129,0 L9.69802075,0 C4.34194629,0 0,4.34385613 0,9.70233706 L0,12.9431907 L3.22421704,12.9431907 L3.22421704,9.70036525 Z" id="Fill-1"></path>
                        </g>
                        <g id="分组" transform="translate(0.000000, 12.395354)">
                            <mask id="mask-12" fill="white">
                                <use xlink:href="#path-11"></use>
                            </mask>
                            <g id="Clip-4"></g>
                            <path d="M29.079,20.165625 L1.211625,20.165625 C0.545180766,20.165625 0,19.6211531 0,18.9556875 L0,1.2099375 C0,0.544471875 0.545180766,0 1.211625,0 L29.079,0 C29.7453433,0 30.290625,0.544471875 30.290625,1.2099375 L30.290625,18.9556875 C30.290625,19.6211531 29.7453433,20.165625 29.079,20.165625" id="Fill-3" fill="#FFFFFF" mask="url(#mask-12)"></path>
                        </g>
                        <path d="M15.1874748,17.964099 C15.8335192,17.964099 16.3573227,18.4735171 16.3573227,19.1019829 L16.3576096,22.8434342 C17.0213682,23.2415607 17.4655998,23.9681293 17.4655998,24.798474 C17.4655998,26.0566745 16.4456183,27.076599 15.187438,27.076599 C13.9293312,27.076599 12.9093498,26.0566745 12.9093498,24.798474 C12.9093498,23.9681293 13.3535813,23.2415607 14.0173188,22.8434342 L14.0176268,19.1019829 C14.0176268,18.5154148 14.4739179,18.0325505 15.0600147,17.9707756 L15.1874748,17.964099 Z" id="形状结合" fill="#A3B5D6"></path>
                    </g>
                </g>
            </g>
        </g>
    </g>
</svg>